<?xml version="1.0" encoding="UTF-8" standalone="no"?>
<!DOCTYPE svg PUBLIC "-//W3C//DTD SVG 1.1//EN" "http://www.w3.org/Graphics/SVG/1.1/DTD/svg11.dtd">
<svg xmlns="http://www.w3.org/2000/svg" version="1.1" viewBox="0 0 1024 1023" width="1024.0pt" height="1023.0pt" xmlns:xlink="http://www.w3.org/1999/xlink">
<defs>
<path d="M 0.00 0.00 L 241.60 0.00 C 222.18 0.67 202.94 2.42 184.05 7.22 C 154.63 14.54 126.66 27.38 102.01 45.04 C 58.05 76.30 24.98 122.35 9.99 174.22 C 4.68 191.62 1.93 209.86 0.74 227.99 C 0.51 232.53 0.46 237.07 0.00 241.60 L 0.00 0.00 Z" id="p0" />
<path d="M 241.60 0.00 L 783.08 0.00 C 804.68 0.85 825.92 3.06 846.73 9.19 C 895.12 22.63 938.70 51.76 970.06 90.94 C 996.40 123.65 1014.11 163.47 1020.36 205.03 C 1022.33 217.94 1023.10 230.95 1023.19 244.00 C 1023.18 422.67 1023.19 601.33 1023.18 780.00 C 1023.09 796.76 1021.60 813.48 1018.31 829.92 C 1013.05 855.17 1003.84 879.55 990.88 901.86 C 969.79 938.40 938.94 969.28 902.45 990.46 C 880.56 1003.20 856.71 1012.36 831.96 1017.72 C 816.54 1020.89 800.86 1022.60 785.12 1023.00 L 238.60 1023.00 C 214.85 1022.39 191.31 1019.00 168.69 1011.58 C 137.84 1001.83 109.04 985.57 84.54 964.45 C 42.24 928.20 12.94 877.13 3.80 822.11 C 1.37 808.60 0.74 795.00 0.00 781.32 L 0.00 241.60 C 0.46 237.07 0.51 232.53 0.74 227.99 C 1.93 209.86 4.68 191.62 9.99 174.22 C 24.98 122.35 58.05 76.30 102.01 45.04 C 126.66 27.38 154.63 14.54 184.05 7.22 C 202.94 2.42 222.18 0.67 241.60 0.00 Z M 367.75 729.39 C 369.79 726.50 371.68 723.52 373.52 720.51 C 386.55 699.55 399.65 678.63 412.69 657.67 C 414.73 654.53 416.74 651.39 418.35 648.00 C 395.59 636.74 377.52 615.65 369.77 591.49 C 366.83 581.97 365.33 571.99 365.36 562.03 C 365.33 529.02 365.35 496.01 365.35 462.99 C 365.29 449.25 367.50 435.72 373.09 423.10 C 380.27 406.29 392.43 391.76 407.54 381.52 C 421.59 372.05 438.08 366.32 455.04 365.47 C 460.99 365.17 467.04 365.27 473.00 365.26 C 566.57 365.26 660.13 365.26 753.70 365.25 C 753.80 333.37 753.73 301.48 753.74 269.60 C 659.16 269.58 564.58 269.60 470.00 269.59 C 461.62 269.58 453.35 269.53 444.99 270.32 C 412.15 273.02 380.17 284.31 353.06 303.06 C 348.85 306.19 344.64 309.31 340.48 312.48 C 330.46 320.77 321.28 329.96 312.94 339.94 C 309.87 343.89 306.94 347.95 303.92 351.93 C 281.50 383.69 269.80 422.18 269.71 461.00 C 269.69 494.33 269.70 527.67 269.70 561.00 C 269.82 584.93 273.84 608.95 282.64 631.25 C 292.86 657.94 309.39 682.24 330.23 701.78 C 341.60 712.51 354.27 721.52 367.75 729.39 Z M 658.22 408.62 C 658.21 477.25 658.22 545.88 658.22 614.51 C 690.06 614.52 721.90 614.52 753.74 614.51 C 753.75 545.88 753.76 477.25 753.74 408.62 C 721.90 408.62 690.06 408.62 658.22 408.62 Z M 539.07 614.53 C 570.89 614.49 602.71 614.53 634.53 614.51 C 634.54 568.18 634.54 521.85 634.53 475.53 C 602.93 475.59 570.87 475.38 539.32 475.62 C 538.51 478.23 538.83 481.28 538.79 484.00 C 538.78 497.67 539.07 511.33 538.83 525.00 C 539.55 532.01 538.41 538.93 539.03 545.94 C 539.41 553.26 539.08 560.62 539.13 567.95 C 538.93 574.32 538.51 580.63 539.02 587.00 C 539.49 592.35 538.69 597.61 538.93 602.94 C 539.07 606.81 539.03 610.67 539.07 614.53 Z M 420.25 614.51 C 452.04 614.52 483.83 614.51 515.63 614.52 C 515.64 582.76 515.63 551.00 515.63 519.24 C 487.09 519.23 458.54 519.24 430.00 519.23 C 426.80 519.25 423.56 519.08 420.37 519.36 C 420.29 520.23 420.24 521.10 420.23 521.97 C 420.27 552.80 420.24 583.68 420.25 614.51 Z M 368.29 729.78 C 376.49 733.73 384.41 738.03 393.03 741.04 C 410.55 747.90 429.28 751.70 448.00 753.12 C 456.63 753.65 465.36 753.60 474.00 753.59 C 567.24 753.59 660.49 753.59 753.73 753.59 C 753.77 721.77 753.74 689.96 753.75 658.14 C 677.17 658.12 600.58 658.16 524.00 658.12 C 520.56 658.24 516.31 657.55 513.22 659.20 C 469.88 680.18 426.50 701.12 383.14 722.07 C 377.94 724.65 372.96 726.60 368.29 729.78 Z" id="p1" />
<path d="M 783.08 0.00 L 1024.00 0.00 L 1024.00 1023.00 L 785.12 1023.00 C 800.86 1022.60 816.54 1020.89 831.96 1017.72 C 856.71 1012.36 880.56 1003.20 902.45 990.46 C 938.94 969.28 969.79 938.40 990.88 901.86 C 1003.84 879.55 1013.05 855.17 1018.31 829.92 C 1021.60 813.48 1023.09 796.76 1023.18 780.00 C 1023.19 601.33 1023.18 422.67 1023.19 244.00 C 1023.10 230.95 1022.33 217.94 1020.36 205.03 C 1014.11 163.47 996.40 123.65 970.06 90.94 C 938.70 51.76 895.12 22.63 846.73 9.19 C 825.92 3.06 804.68 0.85 783.08 0.00 Z" id="p2" />
<path d="M 444.99 270.32 C 453.35 269.53 461.62 269.58 470.00 269.59 C 564.58 269.60 659.16 269.58 753.74 269.60 C 753.73 301.48 753.80 333.37 753.70 365.25 C 660.13 365.26 566.57 365.26 473.00 365.26 C 467.04 365.27 460.99 365.17 455.04 365.47 C 438.08 366.32 421.59 372.05 407.54 381.52 C 392.43 391.76 380.27 406.29 373.09 423.10 C 367.50 435.72 365.29 449.25 365.35 462.99 C 365.35 496.01 365.33 529.02 365.36 562.03 C 365.33 571.99 366.83 581.97 369.77 591.49 C 377.52 615.65 395.59 636.74 418.35 648.00 C 416.74 651.39 414.73 654.53 412.69 657.67 C 399.65 678.63 386.55 699.55 373.52 720.51 C 371.68 723.52 369.79 726.50 367.75 729.39 C 354.27 721.52 341.60 712.51 330.23 701.78 C 309.39 682.24 292.86 657.94 282.64 631.25 C 273.84 608.95 269.82 584.93 269.70 561.00 C 269.70 527.67 269.69 494.33 269.71 461.00 C 269.80 422.18 281.50 383.69 303.92 351.93 C 306.94 347.95 309.87 343.89 312.94 339.94 C 321.28 329.96 330.46 320.77 340.48 312.48 C 344.64 309.31 348.85 306.19 353.06 303.06 C 380.17 284.31 412.15 273.02 444.99 270.32 Z" id="p3" />
<path d="M 658.22 408.62 C 690.06 408.62 721.90 408.62 753.74 408.62 C 753.76 477.25 753.75 545.88 753.74 614.51 C 721.90 614.52 690.06 614.52 658.22 614.51 C 658.22 545.88 658.21 477.25 658.22 408.62 Z" id="p4" />
<path d="M 539.32 475.62 C 570.87 475.38 602.93 475.59 634.53 475.53 C 634.54 521.85 634.54 568.18 634.53 614.51 C 602.71 614.53 570.89 614.49 539.07 614.53 C 539.03 610.67 539.07 606.81 538.93 602.94 C 538.69 597.61 539.49 592.35 539.02 587.00 C 538.51 580.63 538.93 574.32 539.13 567.95 C 539.08 560.62 539.41 553.26 539.03 545.94 C 538.41 538.93 539.55 532.01 538.83 525.00 C 539.07 511.33 538.78 497.67 538.79 484.00 C 538.83 481.28 538.51 478.23 539.32 475.62 Z" id="p5" />
<path d="M 420.37 519.36 C 423.56 519.08 426.80 519.25 430.00 519.23 C 458.54 519.24 487.09 519.23 515.63 519.24 C 515.63 551.00 515.64 582.76 515.63 614.52 C 483.83 614.51 452.04 614.52 420.25 614.51 C 420.24 583.68 420.27 552.80 420.23 521.97 C 420.24 521.10 420.29 520.23 420.37 519.36 Z" id="p6" />
<path d="M 524.00 658.12 C 600.58 658.16 677.17 658.12 753.75 658.14 C 753.74 689.96 753.77 721.77 753.73 753.59 C 660.49 753.59 567.24 753.59 474.00 753.59 C 465.36 753.60 456.63 753.65 448.00 753.12 C 429.28 751.70 410.55 747.90 393.03 741.04 C 384.41 738.03 376.49 733.73 368.29 729.78 C 372.96 726.60 377.94 724.65 383.14 722.07 C 426.50 701.12 469.88 680.18 513.22 659.20 C 516.31 657.55 520.56 658.24 524.00 658.12 Z" id="p7" />
<path d="M 0.00 781.32 C 0.74 795.00 1.37 808.60 3.80 822.11 C 12.94 877.13 42.24 928.20 84.54 964.45 C 109.04 985.57 137.84 1001.83 168.69 1011.58 C 191.31 1019.00 214.85 1022.39 238.60 1023.00 L 0.00 1023.00 L 0.00 781.32 Z" id="p8" />
</defs>
<g stroke-width="10pt">
<use stroke="#ffffff" xlink:href="#p0" />
<use stroke="#42af41" xlink:href="#p1" />
<use stroke="#ffffff" xlink:href="#p2" />
<use stroke="#ffffff" xlink:href="#p3" />
<use stroke="#ffffff" xlink:href="#p4" />
<use stroke="#ffffff" xlink:href="#p5" />
<use stroke="#ffffff" xlink:href="#p6" />
<use stroke="#ffffff" xlink:href="#p7" />
<use stroke="#ffffff" xlink:href="#p8" />
</g>
<g>
<use fill="#ffffff" xlink:href="#p0" />
<use fill="#42af41" xlink:href="#p1" />
<use fill="#ffffff" xlink:href="#p2" />
<use fill="#ffffff" xlink:href="#p3" />
<use fill="#ffffff" xlink:href="#p4" />
<use fill="#ffffff" xlink:href="#p5" />
<use fill="#ffffff" xlink:href="#p6" />
<use fill="#ffffff" xlink:href="#p7" />
<use fill="#ffffff" xlink:href="#p8" />
</g>
</svg>