<?xml version="1.0" encoding="utf-8"?>
<!-- Generator: Adobe Adobe Illustrator 29.1.0, SVG Export Plug-In . SVG Version: 6.00 Build 0)  -->
<svg version="1.1" id="Layer_1" xmlns="http://www.w3.org/2000/svg" xmlns:xlink="http://www.w3.org/1999/xlink" x="0px" y="0px"
	 viewBox="0 0 500 500" style="enable-background:new 0 0 500 500;" xml:space="preserve">
<style type="text/css">
	.st0{fill:#59F473;}
	.st1{fill:#047DFF;}
	.st2{fill:#023535;}
	.st3{fill:#44AF43;}
	.st4{fill:#027DFE;}
</style>
<g>
	<path class="st4" d="M500,106.13c0,96.27,0,192.54-0.35,289.42c-1.62,6.94-2.1,13.56-4.32,19.54c-3.65,9.85-7.54,19.8-12.94,28.74
		c-5.99,9.91-13.61,18.96-22.63,26.41c-7.7,6.36-16.08,11.72-25.02,16.44c-10.16,5.37-20.97,8.03-31.8,10.98
		c-2.95,0.8-5.95,1.42-8.93,2.12c-96.02,0-192.05,0-288.7-0.35c-10.26-2.78-20.15-4.49-29.44-7.85
		c-9.88-3.58-19.12-8.87-27.65-15.17c-3.29-2.43-6.56-4.92-9.54-7.7c-3.54-3.3-6.96-6.77-10.05-10.49
		c-4.01-4.83-8.15-9.68-11.29-15.07c-3.61-6.18-6.56-12.83-9.12-19.53c-2.23-5.81-3.56-11.96-5.21-17.99
		c-1.07-3.9-2-7.84-2.99-11.76c0-95.61,0-191.21,0.35-287.44C2.23,93.3,5.23,81.08,10.42,69.67c3.97-8.75,9.16-16.98,15.3-24.52
		c9.16-11.24,19.9-20.44,32.35-28.05c7.84-4.79,16.32-7.72,24.52-11.46c2.04-0.93,4.51-0.91,6.76-1.43
		c5.56-1.29,11.1-2.65,16.65-3.98c95.36,0,190.71,0,286.73,0.35c7.69,1.59,14.88,2.28,21.72,4.19c11.46,3.2,22.23,8.36,32.25,14.73
		c5.97,3.8,11.59,8.45,16.51,13.55c6.67,6.89,13.14,14.16,18.52,22.06c4.37,6.42,7.39,13.86,10.3,21.13
		c2.25,5.62,3.45,11.67,5.01,17.56C498.12,97.87,499.02,102.01,500,106.13z M181.83,354.78c-0.16-0.14-0.32-0.27-0.18-1.03
		c7.68-12.42,15.36-24.84,23.01-37.2c-1.46-0.61-3.07-0.89-4.12-1.79c-6.68-5.71-13.33-11.14-17.13-19.75
		c-3.68-8.34-5.37-16.62-5.29-25.55c0.11-11.99,0.26-23.98-0.03-35.96c-0.35-14.35,2.33-27.48,12.02-38.78
		c3.38-3.94,7.15-7.43,11.47-9.76c8.81-4.75,18.35-6.96,28.64-6.9c43.99,0.27,87.99,0.12,131.98,0.12c1.94,0,3.88,0,5.8,0
		c0-15.72,0-30.78,0-45.96c-0.96-0.11-1.61-0.25-2.25-0.25c-48.33,0.02-96.65-0.1-144.98,0.22c-7.55,0.05-15.33,1.28-22.57,3.43
		c-10.12,3.01-19.75,7.72-28.17,14.18c-13.03,10.01-23.27,22.3-30.15,37.49c-4.97,10.98-7.43,22.43-7.77,34.19
		c-0.56,19.13-0.65,38.31,0.1,57.43c0.36,9.17,2.13,18.57,5.08,27.25c2.82,8.31,7.05,16.54,12.34,23.54
		c13.62,18,31.01,30.79,53.75,35.6c8.38,1.77,16.69,2.88,25.21,2.88c44.66-0.01,89.32-0.01,133.98,0c1.77,0,3.54,0,5.49,0
		c0-15.69,0-30.75,0-46.1c-1.4-0.06-2.53-0.16-3.66-0.16c-36.33-0.01-72.66-0.01-108.98,0.02c-1.47,0-3.07,0.05-4.38,0.61
		c-6.46,2.79-12.91,5.63-19.25,8.69c-7.89,3.8-15.62,7.93-23.5,11.75C199.68,347.15,190.97,351.14,181.83,354.78z M333.52,300.67
		c11.43,0,22.87,0,34.56,0c0-33.91,0-67.26,0-100.83c-15.44,0-30.62,0-45.76,0c0,33.71,0,67.06,0,100.83
		C325.92,300.67,329.23,300.67,333.52,300.67z M271.58,300.67c12.59,0,25.18,0,38.01,0c0-22.81,0-44.99,0-67.45
		c-15.43,0-30.62,0-45.88,0c0,22.57,0,44.86,0,67.45C266.31,300.67,268.46,300.67,271.58,300.67z M231.5,253.14
		c-8.76,0-17.52,0-26.24,0c0,16.17,0,31.59,0,47.23c15.66,0,31.07,0,46.56,0c0-15.83,0-31.36,0-47.23
		C245.12,253.14,238.81,253.14,231.5,253.14z"/>
	<path class="st4" d="M182.06,354.99c-0.14,0.35-0.51,0.49-0.88,0.63c-0.05-0.26-0.1-0.51,0-1.01
		C181.5,354.51,181.66,354.64,182.06,354.99z"/>
</g>
</svg>
