<?xml version="1.0" encoding="UTF-8" standalone="no"?>
<!DOCTYPE svg PUBLIC "-//W3C//DTD SVG 1.1//EN" "http://www.w3.org/Graphics/SVG/1.1/DTD/svg11.dtd">
<svg xmlns="http://www.w3.org/2000/svg" version="1.1" viewBox="0 0 2177 481" width="2177.0pt" height="481.0pt" xmlns:xlink="http://www.w3.org/1999/xlink">
<defs>
<path d="M 0.00 0.00 L 187.47 0.00 C 180.15 0.90 172.76 0.90 165.44 2.02 C 154.72 3.28 144.36 5.99 133.97 8.83 C 119.29 13.74 104.45 19.87 91.40 28.27 C 87.00 30.84 82.71 33.53 78.72 36.71 C 62.62 48.34 48.33 62.61 36.71 78.71 C 33.53 82.71 30.84 87.00 28.28 91.41 C 20.90 102.91 15.31 115.67 10.72 128.52 C 8.59 133.81 7.39 139.33 6.00 144.85 C 3.03 155.98 1.44 167.51 0.75 179.00 C 0.59 181.46 0.34 183.90 0.00 186.34 L 0.00 0.00 Z" id="p0" />
<path d="M 187.47 0.00 L 480.25 0.00 C 480.37 2.00 480.40 4.00 480.41 6.00 C 480.35 35.74 480.44 65.49 480.36 95.23 C 383.58 95.24 286.78 95.22 190.00 95.24 C 161.28 94.91 133.02 108.83 115.44 131.48 C 102.21 148.19 94.78 169.67 95.22 191.00 C 95.21 223.67 95.23 256.33 95.21 289.00 C 94.34 314.88 105.54 341.00 124.10 358.92 C 131.17 365.85 139.30 371.19 147.97 375.90 C 131.25 402.80 114.56 429.74 97.64 456.51 C 80.86 446.83 65.39 435.04 52.11 420.91 C 36.04 403.77 22.89 383.63 14.20 361.78 C 6.91 344.31 2.77 325.35 1.09 306.53 C 0.63 301.56 0.75 296.59 0.00 291.64 L 0.00 186.34 C 0.34 183.90 0.59 181.46 0.75 179.00 C 1.44 167.51 3.03 155.98 6.00 144.85 C 7.39 139.33 8.59 133.81 10.72 128.52 C 15.31 115.67 20.90 102.91 28.28 91.41 C 30.84 87.00 33.53 82.71 36.71 78.71 C 48.33 62.61 62.62 48.34 78.72 36.71 C 82.71 33.53 87.00 30.84 91.40 28.27 C 104.45 19.87 119.29 13.74 133.97 8.83 C 144.36 5.99 154.72 3.28 165.44 2.02 C 172.76 0.90 180.15 0.90 187.47 0.00 Z" id="p1" />
<path d="M 480.25 0.00 L 2177.00 0.00 L 2177.00 481.00 L 0.00 481.00 L 0.00 291.64 C 0.75 296.59 0.63 301.56 1.09 306.53 C 2.77 325.35 6.91 344.31 14.20 361.78 C 22.89 383.63 36.04 403.77 52.11 420.91 C 65.39 435.04 80.86 446.83 97.64 456.51 C 114.56 429.74 131.25 402.80 147.97 375.90 C 139.30 371.19 131.17 365.85 124.10 358.92 C 105.54 341.00 94.34 314.88 95.21 289.00 C 95.23 256.33 95.21 223.67 95.22 191.00 C 94.78 169.67 102.21 148.19 115.44 131.48 C 133.02 108.83 161.28 94.91 190.00 95.24 C 286.78 95.22 383.58 95.24 480.36 95.23 C 480.44 65.49 480.35 35.74 480.41 6.00 C 480.40 4.00 480.37 2.00 480.25 0.00 Z M 833.37 103.75 C 833.27 194.98 833.36 286.22 833.33 377.46 C 850.43 377.46 867.52 377.45 884.62 377.46 C 884.63 346.64 884.61 315.82 884.63 285.00 C 884.77 272.20 885.90 258.82 892.35 247.46 C 897.74 238.61 905.36 231.07 915.27 227.54 C 924.84 223.73 935.49 222.75 945.32 226.16 C 953.91 229.15 960.34 235.96 964.05 244.12 C 968.27 253.54 969.35 264.78 969.37 275.00 C 969.38 309.15 969.37 343.30 969.37 377.45 C 986.48 377.47 1003.59 377.45 1020.70 377.46 C 1020.69 337.64 1020.73 297.80 1020.68 257.98 C 1020.47 240.52 1017.57 223.21 1007.34 208.64 C 997.54 194.01 982.02 184.22 964.94 180.39 C 953.15 177.76 940.47 177.72 928.63 180.08 C 918.44 182.09 908.77 186.49 900.13 192.19 C 894.39 196.00 889.70 200.73 884.69 205.39 C 884.54 171.25 884.66 137.09 884.63 102.96 C 884.61 101.11 884.09 99.40 883.59 97.64 C 866.86 99.76 850.13 101.94 833.37 103.75 Z M 816.07 306.71 C 802.00 302.48 787.83 298.62 773.82 294.22 C 771.42 293.29 769.23 293.70 766.81 294.20 C 761.85 306.83 753.37 317.46 741.75 324.55 C 729.83 331.85 715.95 335.32 702.00 334.76 C 685.56 334.47 669.32 329.12 656.81 318.27 C 644.05 307.39 635.47 291.30 631.74 275.08 C 628.38 261.56 627.75 247.86 628.59 233.99 C 630.02 215.80 634.58 198.23 645.35 183.24 C 655.36 168.82 671.29 158.56 688.58 155.49 C 695.17 154.06 702.28 154.25 709.00 154.33 C 723.54 154.60 738.01 160.52 749.20 169.70 C 757.22 176.37 762.91 185.01 766.80 194.63 C 768.89 194.89 770.71 195.49 772.80 194.83 C 787.24 190.67 801.64 186.46 816.02 182.12 C 811.39 167.14 802.98 153.15 792.40 141.59 C 779.32 127.71 762.74 117.29 744.59 111.43 C 727.18 105.61 709.22 104.55 691.01 105.87 C 672.37 107.42 653.67 112.95 637.62 122.63 C 618.66 133.92 603.29 150.55 593.32 170.21 C 584.77 186.27 580.24 204.03 578.08 222.01 C 575.14 248.30 577.17 275.58 585.63 300.74 C 594.92 327.39 612.16 350.82 636.48 365.53 C 652.38 375.49 670.42 380.84 689.01 382.77 C 710.65 384.97 732.50 382.64 752.75 374.51 C 775.00 365.26 794.25 349.43 806.34 328.45 C 810.23 321.58 813.86 314.30 816.07 306.71 Z M 1403.19 292.40 C 1401.03 291.91 1399.05 291.33 1396.85 292.01 C 1381.96 295.96 1367.09 299.97 1352.14 303.67 C 1355.15 317.00 1360.06 329.65 1368.29 340.67 C 1380.71 358.09 1399.48 370.94 1419.80 377.38 C 1440.66 384.02 1463.48 384.97 1485.03 381.63 C 1505.07 378.41 1523.99 371.03 1538.76 356.75 C 1551.68 344.39 1559.41 327.79 1560.93 310.00 C 1562.44 296.13 1560.52 282.09 1554.35 269.53 C 1547.74 256.32 1536.29 245.71 1523.44 238.64 C 1513.87 233.25 1503.58 229.36 1492.97 226.56 C 1479.60 223.04 1466.25 219.45 1452.84 216.11 C 1441.10 213.22 1428.59 210.08 1419.69 201.33 C 1411.60 193.37 1409.86 180.29 1415.43 170.44 C 1419.82 162.73 1427.83 157.29 1436.27 154.91 C 1446.81 152.13 1457.36 152.54 1468.00 154.46 C 1479.42 156.70 1490.70 162.87 1497.73 172.29 C 1501.64 177.43 1504.26 183.31 1505.85 189.56 C 1507.84 190.06 1509.66 190.65 1511.74 190.19 C 1525.67 187.22 1539.53 183.82 1553.51 181.02 C 1550.01 163.53 1542.25 147.14 1529.54 134.47 C 1512.63 117.26 1489.51 108.24 1465.76 105.91 C 1450.09 104.78 1434.69 105.27 1419.48 109.52 C 1402.50 114.18 1386.92 122.94 1375.45 136.47 C 1365.75 148.11 1359.72 162.79 1359.30 178.00 C 1359.11 184.67 1358.98 191.44 1360.34 197.99 C 1363.40 213.57 1372.10 227.61 1383.88 238.13 C 1397.46 250.37 1414.36 257.32 1431.82 262.03 C 1445.15 265.49 1458.52 268.79 1471.82 272.35 C 1482.19 275.17 1493.49 277.77 1501.32 285.68 C 1510.08 294.50 1510.38 309.30 1503.19 319.16 C 1496.67 328.37 1484.69 333.64 1473.82 335.31 C 1462.59 336.44 1451.58 336.31 1440.96 332.04 C 1422.97 325.36 1409.98 309.99 1403.19 292.40 Z M 1242.65 135.73 C 1242.62 151.95 1242.70 168.18 1242.60 184.40 C 1231.72 184.37 1220.83 184.35 1209.94 184.41 C 1209.55 199.42 1209.89 214.46 1209.76 229.47 C 1220.71 229.62 1231.66 229.52 1242.61 229.53 C 1242.70 255.35 1242.61 281.18 1242.66 307.00 C 1242.71 317.32 1243.96 327.48 1247.42 337.24 C 1252.22 351.26 1262.56 363.41 1275.70 370.28 C 1285.79 375.64 1297.68 377.55 1309.00 377.46 C 1320.85 377.45 1332.70 377.47 1344.55 377.45 C 1344.55 364.62 1344.55 351.83 1344.56 339.00 C 1344.67 336.54 1343.70 334.50 1342.83 332.28 C 1332.91 331.85 1321.35 333.46 1311.96 330.14 C 1303.40 327.17 1297.20 320.05 1295.18 311.24 C 1293.71 304.37 1293.81 297.00 1293.84 290.00 C 1293.84 270.05 1293.84 250.10 1293.83 230.15 C 1310.69 229.98 1327.54 230.13 1344.40 230.07 C 1344.75 214.86 1344.45 199.62 1344.56 184.40 C 1327.65 184.34 1310.74 184.43 1293.84 184.35 C 1293.84 168.14 1293.83 151.94 1293.84 135.73 C 1276.78 135.72 1259.71 135.73 1242.65 135.73 Z M 1590.41 135.84 C 1590.51 152.01 1590.43 168.19 1590.45 184.36 C 1579.49 184.45 1568.53 184.27 1557.57 184.47 C 1557.62 199.47 1557.60 214.47 1557.58 229.47 C 1568.53 229.64 1579.48 229.48 1590.44 229.56 C 1590.49 255.71 1590.42 281.87 1590.47 308.02 C 1590.50 321.62 1593.00 336.12 1600.10 347.92 C 1607.38 360.47 1619.34 370.07 1633.23 374.32 C 1640.88 376.63 1649.03 377.56 1657.00 377.46 C 1668.78 377.41 1680.57 377.56 1692.35 377.38 C 1692.30 367.58 1692.34 357.79 1692.33 348.00 C 1692.23 342.45 1693.12 337.44 1690.52 332.27 C 1682.70 332.09 1674.76 332.64 1666.97 331.82 C 1659.15 330.96 1651.80 327.31 1647.20 320.79 C 1642.49 314.49 1641.72 306.62 1641.60 299.00 C 1641.63 275.87 1641.61 252.74 1641.61 229.61 C 1658.52 229.43 1675.43 229.63 1692.33 229.50 C 1692.35 214.50 1692.28 199.50 1692.36 184.49 C 1675.45 184.22 1658.53 184.48 1641.62 184.36 C 1641.63 168.18 1641.57 151.99 1641.65 135.81 C 1624.79 135.68 1607.90 135.65 1591.04 135.82 L 1590.41 135.84 Z M 1900.73 135.79 C 1900.68 151.96 1900.67 168.14 1900.74 184.31 C 1889.90 184.47 1879.05 184.35 1868.20 184.38 C 1868.17 199.42 1868.23 214.46 1868.17 229.51 C 1879.00 229.58 1889.83 229.54 1900.66 229.53 C 1900.74 253.69 1900.70 277.84 1900.68 302.00 C 1900.57 307.70 1901.18 313.32 1901.53 319.00 C 1903.27 337.81 1912.19 356.13 1928.17 366.81 C 1939.09 374.36 1951.87 377.24 1965.00 377.44 C 1977.53 377.50 1990.05 377.39 2002.58 377.50 C 2002.77 365.00 2002.57 352.49 2002.70 339.99 C 2002.87 337.18 2002.01 334.80 2000.95 332.27 C 1993.32 332.10 1985.60 332.60 1978.00 331.88 C 1970.35 331.14 1963.10 327.78 1958.35 321.61 C 1953.66 315.66 1952.11 308.45 1952.25 301.00 C 1952.33 277.17 1952.08 253.31 1952.37 229.48 C 1969.13 229.62 1985.89 229.50 2002.65 229.54 C 2002.66 214.49 2002.66 199.44 2002.65 184.38 C 1985.84 184.35 1969.03 184.44 1952.22 184.34 C 1952.27 168.14 1952.24 151.94 1952.24 135.74 C 1935.07 135.75 1917.90 135.65 1900.73 135.79 Z M 385.58 138.44 C 385.70 206.46 385.60 274.49 385.63 342.52 C 417.22 342.53 448.80 342.53 480.39 342.51 C 480.42 274.49 480.33 206.46 480.44 138.44 C 448.82 138.30 417.20 138.29 385.58 138.44 Z M 1038.24 239.18 C 1051.26 241.77 1064.24 244.53 1077.20 247.38 C 1079.93 247.99 1082.64 248.33 1085.43 248.48 C 1088.16 238.57 1094.94 230.57 1104.15 226.08 C 1111.94 222.44 1120.54 221.57 1129.03 222.40 C 1140.40 223.47 1151.57 229.47 1158.03 238.99 C 1161.33 243.66 1162.83 248.97 1163.80 254.53 C 1149.24 256.14 1134.58 257.06 1119.99 258.49 C 1103.07 259.79 1084.95 261.96 1069.52 269.52 C 1057.07 275.57 1046.56 285.07 1040.90 297.87 C 1035.98 309.33 1035.03 322.62 1037.03 334.84 C 1039.20 347.67 1046.28 359.46 1056.24 367.75 C 1067.10 376.88 1080.99 381.69 1094.98 383.10 C 1109.91 384.42 1124.97 382.54 1138.78 376.56 C 1150.35 371.74 1160.74 363.86 1169.28 354.73 C 1169.37 362.31 1169.30 369.88 1169.33 377.46 C 1184.10 377.46 1198.87 377.46 1213.64 377.46 C 1213.63 341.31 1213.66 305.15 1213.62 269.00 C 1213.73 252.52 1211.22 235.32 1203.38 220.61 C 1196.39 206.92 1184.95 195.72 1171.28 188.73 C 1160.33 183.00 1148.36 180.00 1136.09 178.86 C 1117.64 177.52 1099.44 178.61 1082.39 186.38 C 1060.79 196.04 1043.03 215.68 1038.24 239.18 Z M 1696.42 239.18 C 1709.59 241.79 1722.72 244.58 1735.82 247.48 C 1738.46 248.06 1741.14 248.26 1743.84 248.37 C 1745.85 239.69 1751.67 232.79 1758.97 227.95 C 1767.23 222.81 1777.47 221.46 1787.01 222.38 C 1796.92 223.26 1806.29 227.65 1813.07 234.95 C 1818.14 240.41 1820.90 247.24 1822.04 254.53 C 1807.39 256.10 1792.67 257.10 1778.01 258.51 C 1762.54 259.72 1747.57 261.44 1733.01 267.17 C 1720.49 272.29 1709.08 280.30 1702.14 292.15 C 1694.75 304.56 1693.04 318.83 1694.85 332.99 C 1696.90 346.42 1703.92 358.97 1714.37 367.65 C 1724.73 376.52 1738.55 381.45 1751.98 382.97 C 1767.08 384.55 1782.80 382.70 1796.80 376.64 C 1808.63 371.76 1818.61 364.08 1827.41 354.89 C 1827.57 362.40 1827.46 369.92 1827.49 377.43 C 1842.27 377.50 1857.05 377.43 1871.83 377.47 C 1871.77 369.62 1872.45 361.85 1871.86 354.00 C 1872.32 326.95 1871.90 300.01 1872.09 273.00 C 1871.68 265.92 1872.01 259.05 1871.00 252.02 C 1869.13 237.50 1864.34 222.36 1855.37 210.61 C 1845.83 197.55 1832.09 188.42 1816.82 183.39 C 1805.33 179.62 1793.06 178.21 1781.00 178.42 C 1761.84 178.23 1742.91 182.88 1727.13 194.05 C 1716.18 202.00 1706.50 212.63 1701.07 225.14 C 1699.03 229.66 1697.60 234.37 1696.42 239.18 Z M 2055.13 315.79 C 2039.60 319.89 2024.00 323.77 2008.43 327.71 C 2012.77 342.27 2021.31 355.35 2033.48 364.54 C 2046.65 374.88 2062.47 380.52 2078.98 382.62 C 2096.47 384.68 2114.85 383.36 2131.55 377.53 C 2144.48 373.11 2156.84 365.07 2165.06 354.04 C 2172.39 344.56 2176.10 332.91 2176.62 321.01 C 2177.34 308.29 2174.10 295.20 2165.38 285.62 C 2159.84 279.72 2152.56 275.22 2145.36 271.63 C 2134.95 266.43 2124.22 263.76 2113.00 261.01 C 2102.31 258.54 2091.65 255.99 2080.94 253.62 C 2075.71 252.39 2070.84 250.96 2066.95 247.05 C 2063.82 243.87 2061.79 239.48 2063.13 235.00 C 2064.44 229.87 2068.87 226.72 2073.56 224.88 C 2082.98 221.25 2094.16 221.16 2103.74 224.26 C 2113.36 227.52 2121.83 233.40 2124.97 243.51 C 2127.38 244.04 2129.58 244.52 2132.02 243.83 C 2145.52 240.83 2159.06 238.02 2172.56 234.98 C 2169.15 221.10 2161.85 208.34 2151.13 198.81 C 2138.13 187.14 2121.29 180.63 2104.01 178.88 C 2084.07 177.30 2064.25 179.19 2046.20 188.33 C 2031.99 195.26 2020.11 206.75 2015.14 222.02 C 2012.54 230.67 2011.73 240.12 2013.54 249.01 C 2015.40 259.41 2021.01 269.13 2028.94 276.08 C 2037.67 284.14 2048.19 289.32 2059.50 292.73 C 2071.78 296.40 2084.49 298.76 2097.00 301.56 C 2105.20 303.38 2115.11 304.70 2121.72 310.28 C 2127.99 315.50 2128.09 325.68 2122.26 331.27 C 2115.15 338.11 2104.53 340.00 2095.01 339.67 C 2083.85 339.76 2072.35 335.62 2064.99 326.99 C 2062.59 324.29 2061.55 321.13 2059.89 318.01 C 2059.22 316.41 2056.60 316.36 2055.13 315.79 Z M 267.42 342.54 C 299.05 342.46 330.69 342.61 362.32 342.46 C 362.30 300.98 362.32 259.49 362.31 218.00 C 362.36 213.49 362.39 209.00 362.06 204.50 C 334.37 204.57 306.69 204.51 279.00 204.53 C 275.19 204.58 271.33 204.34 267.53 204.66 C 267.24 207.42 267.36 210.23 267.36 213.00 C 267.43 256.18 267.30 299.36 267.42 342.54 Z M 149.52 342.51 C 181.09 342.53 212.66 342.53 244.23 342.51 C 244.23 310.95 244.24 279.38 244.23 247.82 C 216.15 247.80 188.08 247.83 160.00 247.81 C 156.57 247.82 153.02 247.59 149.62 248.08 C 149.39 279.40 149.60 311.14 149.52 342.51 Z M 98.17 456.79 C 109.40 462.85 121.06 467.92 133.22 471.81 C 152.22 477.70 172.13 480.49 192.00 480.48 C 288.13 480.48 384.26 480.49 480.39 480.47 C 480.39 448.89 480.40 417.30 480.39 385.72 C 404.92 385.70 329.46 385.73 254.00 385.71 C 249.41 385.82 245.38 385.00 241.15 387.18 C 198.72 407.75 156.24 428.23 113.79 448.76 C 108.42 451.46 103.13 453.43 98.17 456.79 Z" id="p2" />
<path d="M 883.59 97.64 C 884.09 99.40 884.61 101.11 884.63 102.96 C 884.66 137.09 884.54 171.25 884.69 205.39 C 889.70 200.73 894.39 196.00 900.13 192.19 C 908.77 186.49 918.44 182.09 928.63 180.08 C 940.47 177.72 953.15 177.76 964.94 180.39 C 982.02 184.22 997.54 194.01 1007.34 208.64 C 1017.57 223.21 1020.47 240.52 1020.68 257.98 C 1020.73 297.80 1020.69 337.64 1020.70 377.46 C 1003.59 377.45 986.48 377.47 969.37 377.45 C 969.37 343.30 969.38 309.15 969.37 275.00 C 969.35 264.78 968.27 253.54 964.05 244.12 C 960.34 235.96 953.91 229.15 945.32 226.16 C 935.49 222.75 924.84 223.73 915.27 227.54 C 905.36 231.07 897.74 238.61 892.35 247.46 C 885.90 258.82 884.77 272.20 884.63 285.00 C 884.61 315.82 884.63 346.64 884.62 377.46 C 867.52 377.45 850.43 377.46 833.33 377.46 C 833.36 286.22 833.27 194.98 833.37 103.75 C 850.13 101.94 866.86 99.76 883.59 97.64 Z" id="p3" />
<path d="M 691.01 105.87 C 709.22 104.55 727.18 105.61 744.59 111.43 C 762.74 117.29 779.32 127.71 792.40 141.59 C 802.98 153.15 811.39 167.14 816.02 182.12 C 801.64 186.46 787.24 190.67 772.80 194.83 C 770.71 195.49 768.89 194.89 766.80 194.63 C 762.91 185.01 757.22 176.37 749.20 169.70 C 738.01 160.52 723.54 154.60 709.00 154.33 C 702.28 154.25 695.17 154.06 688.58 155.49 C 671.29 158.56 655.36 168.82 645.35 183.24 C 634.58 198.23 630.02 215.80 628.59 233.99 C 627.75 247.86 628.38 261.56 631.74 275.08 C 635.47 291.30 644.05 307.39 656.81 318.27 C 669.32 329.12 685.56 334.47 702.00 334.76 C 715.95 335.32 729.83 331.85 741.75 324.55 C 753.37 317.46 761.85 306.83 766.81 294.20 C 769.23 293.70 771.42 293.29 773.82 294.22 C 787.83 298.62 802.00 302.48 816.07 306.71 C 813.86 314.30 810.23 321.58 806.34 328.45 C 794.25 349.43 775.00 365.26 752.75 374.51 C 732.50 382.64 710.65 384.97 689.01 382.77 C 670.42 380.84 652.38 375.49 636.48 365.53 C 612.16 350.82 594.92 327.39 585.63 300.74 C 577.17 275.58 575.14 248.30 578.08 222.01 C 580.24 204.03 584.77 186.27 593.32 170.21 C 603.29 150.55 618.66 133.92 637.62 122.63 C 653.67 112.95 672.37 107.42 691.01 105.87 Z" id="p4" />
<path d="M 1465.76 105.91 C 1489.51 108.24 1512.63 117.26 1529.54 134.47 C 1542.25 147.14 1550.01 163.53 1553.51 181.02 C 1539.53 183.82 1525.67 187.22 1511.74 190.19 C 1509.66 190.65 1507.84 190.06 1505.85 189.56 C 1504.26 183.31 1501.64 177.43 1497.73 172.29 C 1490.70 162.87 1479.42 156.70 1468.00 154.46 C 1457.36 152.54 1446.81 152.13 1436.27 154.91 C 1427.83 157.29 1419.82 162.73 1415.43 170.44 C 1409.86 180.29 1411.60 193.37 1419.69 201.33 C 1428.59 210.08 1441.10 213.22 1452.84 216.11 C 1466.25 219.45 1479.60 223.04 1492.97 226.56 C 1503.58 229.36 1513.87 233.25 1523.44 238.64 C 1536.29 245.71 1547.74 256.32 1554.35 269.53 C 1560.52 282.09 1562.44 296.13 1560.93 310.00 C 1559.41 327.79 1551.68 344.39 1538.76 356.75 C 1523.99 371.03 1505.07 378.41 1485.03 381.63 C 1463.48 384.97 1440.66 384.02 1419.80 377.38 C 1399.48 370.94 1380.71 358.09 1368.29 340.67 C 1360.06 329.65 1355.15 317.00 1352.14 303.67 C 1367.09 299.97 1381.96 295.96 1396.85 292.01 C 1399.05 291.33 1401.03 291.91 1403.19 292.40 C 1409.98 309.99 1422.97 325.36 1440.96 332.04 C 1451.58 336.31 1462.59 336.44 1473.82 335.31 C 1484.69 333.64 1496.67 328.37 1503.19 319.16 C 1510.38 309.30 1510.08 294.50 1501.32 285.68 C 1493.49 277.77 1482.19 275.17 1471.82 272.35 C 1458.52 268.79 1445.15 265.49 1431.82 262.03 C 1414.36 257.32 1397.46 250.37 1383.88 238.13 C 1372.10 227.61 1363.40 213.57 1360.34 197.99 C 1358.98 191.44 1359.11 184.67 1359.30 178.00 C 1359.72 162.79 1365.75 148.11 1375.45 136.47 C 1386.92 122.94 1402.50 114.18 1419.48 109.52 C 1434.69 105.27 1450.09 104.78 1465.76 105.91 Z" id="p5" />
<path d="M 1242.65 135.73 C 1259.71 135.73 1276.78 135.72 1293.84 135.73 C 1293.83 151.94 1293.84 168.14 1293.84 184.35 C 1310.74 184.43 1327.65 184.34 1344.56 184.40 C 1344.45 199.62 1344.75 214.86 1344.40 230.07 C 1327.54 230.13 1310.69 229.98 1293.83 230.15 C 1293.84 250.10 1293.84 270.05 1293.84 290.00 C 1293.81 297.00 1293.71 304.37 1295.18 311.24 C 1297.20 320.05 1303.40 327.17 1311.96 330.14 C 1321.35 333.46 1332.91 331.85 1342.83 332.28 C 1343.70 334.50 1344.67 336.54 1344.56 339.00 C 1344.55 351.83 1344.55 364.62 1344.55 377.45 C 1332.70 377.47 1320.85 377.45 1309.00 377.46 C 1297.68 377.55 1285.79 375.64 1275.70 370.28 C 1262.56 363.41 1252.22 351.26 1247.42 337.24 C 1243.96 327.48 1242.71 317.32 1242.66 307.00 C 1242.61 281.18 1242.70 255.35 1242.61 229.53 C 1231.66 229.52 1220.71 229.62 1209.76 229.47 C 1209.89 214.46 1209.55 199.42 1209.94 184.41 C 1220.83 184.35 1231.72 184.37 1242.60 184.40 C 1242.70 168.18 1242.62 151.95 1242.65 135.73 Z" id="p6" />
<path d="M 1590.41 135.84 L 1591.04 135.82 C 1607.90 135.65 1624.79 135.68 1641.65 135.81 C 1641.57 151.99 1641.63 168.18 1641.62 184.36 C 1658.53 184.48 1675.45 184.22 1692.36 184.49 C 1692.28 199.50 1692.35 214.50 1692.33 229.50 C 1675.43 229.63 1658.52 229.43 1641.61 229.61 C 1641.61 252.74 1641.63 275.87 1641.60 299.00 C 1641.72 306.62 1642.49 314.49 1647.20 320.79 C 1651.80 327.31 1659.15 330.96 1666.97 331.82 C 1674.76 332.64 1682.70 332.09 1690.52 332.27 C 1693.12 337.44 1692.23 342.45 1692.33 348.00 C 1692.34 357.79 1692.30 367.58 1692.35 377.38 C 1680.57 377.56 1668.78 377.41 1657.00 377.46 C 1649.03 377.56 1640.88 376.63 1633.23 374.32 C 1619.34 370.07 1607.38 360.47 1600.10 347.92 C 1593.00 336.12 1590.50 321.62 1590.47 308.02 C 1590.42 281.87 1590.49 255.71 1590.44 229.56 C 1579.48 229.48 1568.53 229.64 1557.58 229.47 C 1557.60 214.47 1557.62 199.47 1557.57 184.47 C 1568.53 184.27 1579.49 184.45 1590.45 184.36 C 1590.43 168.19 1590.51 152.01 1590.41 135.84 Z" id="p7" />
<path d="M 1900.73 135.79 C 1917.90 135.65 1935.07 135.75 1952.24 135.74 C 1952.24 151.94 1952.27 168.14 1952.22 184.34 C 1969.03 184.44 1985.84 184.35 2002.65 184.38 C 2002.66 199.44 2002.66 214.49 2002.65 229.54 C 1985.89 229.50 1969.13 229.62 1952.37 229.48 C 1952.08 253.31 1952.33 277.17 1952.25 301.00 C 1952.11 308.45 1953.66 315.66 1958.35 321.61 C 1963.10 327.78 1970.35 331.14 1978.00 331.88 C 1985.60 332.60 1993.32 332.10 2000.95 332.27 C 2002.01 334.80 2002.87 337.18 2002.70 339.99 C 2002.57 352.49 2002.77 365.00 2002.58 377.50 C 1990.05 377.39 1977.53 377.50 1965.00 377.44 C 1951.87 377.24 1939.09 374.36 1928.17 366.81 C 1912.19 356.13 1903.27 337.81 1901.53 319.00 C 1901.18 313.32 1900.57 307.70 1900.68 302.00 C 1900.70 277.84 1900.74 253.69 1900.66 229.53 C 1889.83 229.54 1879.00 229.58 1868.17 229.51 C 1868.23 214.46 1868.17 199.42 1868.20 184.38 C 1879.05 184.35 1889.90 184.47 1900.74 184.31 C 1900.67 168.14 1900.68 151.96 1900.73 135.79 Z" id="p8" />
<path d="M 480.44 138.44 C 480.33 206.46 480.42 274.49 480.39 342.51 C 448.80 342.53 417.22 342.53 385.63 342.52 C 385.60 274.49 385.70 206.46 385.58 138.44 C 417.20 138.29 448.82 138.30 480.44 138.44 Z" id="p9" />
<path d="M 1136.09 178.86 C 1148.36 180.00 1160.33 183.00 1171.28 188.73 C 1184.95 195.72 1196.39 206.92 1203.38 220.61 C 1211.22 235.32 1213.73 252.52 1213.62 269.00 C 1213.66 305.15 1213.63 341.31 1213.64 377.46 C 1198.87 377.46 1184.10 377.46 1169.33 377.46 C 1169.30 369.88 1169.37 362.31 1169.28 354.73 C 1160.74 363.86 1150.35 371.74 1138.78 376.56 C 1124.97 382.54 1109.91 384.42 1094.98 383.10 C 1080.99 381.69 1067.10 376.88 1056.24 367.75 C 1046.28 359.46 1039.20 347.67 1037.03 334.84 C 1035.03 322.62 1035.98 309.33 1040.90 297.87 C 1046.56 285.07 1057.07 275.57 1069.52 269.52 C 1084.95 261.96 1103.07 259.79 1119.99 258.49 C 1134.58 257.06 1149.24 256.14 1163.80 254.53 C 1162.83 248.97 1161.33 243.66 1158.03 238.99 C 1151.57 229.47 1140.40 223.47 1129.03 222.40 C 1120.54 221.57 1111.94 222.44 1104.15 226.08 C 1094.94 230.57 1088.16 238.57 1085.43 248.48 C 1082.64 248.33 1079.93 247.99 1077.20 247.38 C 1064.24 244.53 1051.26 241.77 1038.24 239.18 C 1043.03 215.68 1060.79 196.04 1082.39 186.38 C 1099.44 178.61 1117.64 177.52 1136.09 178.86 Z M 1163.78 295.73 C 1151.51 296.67 1139.26 297.87 1126.99 298.80 C 1118.01 299.67 1107.99 300.00 1099.56 303.58 C 1094.45 305.74 1090.16 309.74 1088.66 315.19 C 1088.10 318.17 1088.06 321.52 1088.67 324.51 C 1090.15 329.78 1095.34 333.69 1100.18 335.76 C 1108.89 339.45 1119.36 339.36 1128.41 337.09 C 1146.64 331.77 1161.76 314.78 1163.78 295.73 Z" id="p10" />
<path d="M 1781.00 178.42 C 1793.06 178.21 1805.33 179.62 1816.82 183.39 C 1832.09 188.42 1845.83 197.55 1855.37 210.61 C 1864.34 222.36 1869.13 237.50 1871.00 252.02 C 1872.01 259.05 1871.68 265.92 1872.09 273.00 C 1871.90 300.01 1872.32 326.95 1871.86 354.00 C 1872.45 361.85 1871.77 369.62 1871.83 377.47 C 1857.05 377.43 1842.27 377.50 1827.49 377.43 C 1827.46 369.92 1827.57 362.40 1827.41 354.89 C 1818.61 364.08 1808.63 371.76 1796.80 376.64 C 1782.80 382.70 1767.08 384.55 1751.98 382.97 C 1738.55 381.45 1724.73 376.52 1714.37 367.65 C 1703.92 358.97 1696.90 346.42 1694.85 332.99 C 1693.04 318.83 1694.75 304.56 1702.14 292.15 C 1709.08 280.30 1720.49 272.29 1733.01 267.17 C 1747.57 261.44 1762.54 259.72 1778.01 258.51 C 1792.67 257.10 1807.39 256.10 1822.04 254.53 C 1820.90 247.24 1818.14 240.41 1813.07 234.95 C 1806.29 227.65 1796.92 223.26 1787.01 222.38 C 1777.47 221.46 1767.23 222.81 1758.97 227.95 C 1751.67 232.79 1745.85 239.69 1743.84 248.37 C 1741.14 248.26 1738.46 248.06 1735.82 247.48 C 1722.72 244.58 1709.59 241.79 1696.42 239.18 C 1697.60 234.37 1699.03 229.66 1701.07 225.14 C 1706.50 212.63 1716.18 202.00 1727.13 194.05 C 1742.91 182.88 1761.84 178.23 1781.00 178.42 Z M 1822.08 295.74 C 1809.97 296.64 1797.88 297.83 1785.77 298.76 C 1777.44 299.55 1768.81 299.89 1760.78 302.44 C 1755.97 304.03 1751.59 306.49 1748.85 310.90 C 1745.04 316.95 1745.34 325.32 1750.50 330.51 C 1756.48 336.50 1765.75 338.82 1774.00 338.63 C 1797.70 339.45 1819.38 318.86 1822.08 295.74 Z" id="p11" />
<path d="M 2104.01 178.88 C 2121.29 180.63 2138.13 187.14 2151.13 198.81 C 2161.85 208.34 2169.15 221.10 2172.56 234.98 C 2159.06 238.02 2145.52 240.83 2132.02 243.83 C 2129.58 244.52 2127.38 244.04 2124.97 243.51 C 2121.83 233.40 2113.36 227.52 2103.74 224.26 C 2094.16 221.16 2082.98 221.25 2073.56 224.88 C 2068.87 226.72 2064.44 229.87 2063.13 235.00 C 2061.79 239.48 2063.82 243.87 2066.95 247.05 C 2070.84 250.96 2075.71 252.39 2080.94 253.62 C 2091.65 255.99 2102.31 258.54 2113.00 261.01 C 2124.22 263.76 2134.95 266.43 2145.36 271.63 C 2152.56 275.22 2159.84 279.72 2165.38 285.62 C 2174.10 295.20 2177.34 308.29 2176.62 321.01 C 2176.10 332.91 2172.39 344.56 2165.06 354.04 C 2156.84 365.07 2144.48 373.11 2131.55 377.53 C 2114.85 383.36 2096.47 384.68 2078.98 382.62 C 2062.47 380.52 2046.65 374.88 2033.48 364.54 C 2021.31 355.35 2012.77 342.27 2008.43 327.71 C 2024.00 323.77 2039.60 319.89 2055.13 315.79 C 2056.60 316.36 2059.22 316.41 2059.89 318.01 C 2061.55 321.13 2062.59 324.29 2064.99 326.99 C 2072.35 335.62 2083.85 339.76 2095.01 339.67 C 2104.53 340.00 2115.15 338.11 2122.26 331.27 C 2128.09 325.68 2127.99 315.50 2121.72 310.28 C 2115.11 304.70 2105.20 303.38 2097.00 301.56 C 2084.49 298.76 2071.78 296.40 2059.50 292.73 C 2048.19 289.32 2037.67 284.14 2028.94 276.08 C 2021.01 269.13 2015.40 259.41 2013.54 249.01 C 2011.73 240.12 2012.54 230.67 2015.14 222.02 C 2020.11 206.75 2031.99 195.26 2046.20 188.33 C 2064.25 179.19 2084.07 177.30 2104.01 178.88 Z" id="p12" />
<path d="M 267.53 204.66 C 271.33 204.34 275.19 204.58 279.00 204.53 C 306.69 204.51 334.37 204.57 362.06 204.50 C 362.39 209.00 362.36 213.49 362.31 218.00 C 362.32 259.49 362.30 300.98 362.32 342.46 C 330.69 342.61 299.05 342.46 267.42 342.54 C 267.30 299.36 267.43 256.18 267.36 213.00 C 267.36 210.23 267.24 207.42 267.53 204.66 Z" id="p13" />
<path d="M 149.62 248.08 C 153.02 247.59 156.57 247.82 160.00 247.81 C 188.08 247.83 216.15 247.80 244.23 247.82 C 244.24 279.38 244.23 310.95 244.23 342.51 C 212.66 342.53 181.09 342.53 149.52 342.51 C 149.60 311.14 149.39 279.40 149.62 248.08 Z" id="p14" />
<path d="M 1163.78 295.73 C 1161.76 314.78 1146.64 331.77 1128.41 337.09 C 1119.36 339.36 1108.89 339.45 1100.18 335.76 C 1095.34 333.69 1090.15 329.78 1088.67 324.51 C 1088.06 321.52 1088.10 318.17 1088.66 315.19 C 1090.16 309.74 1094.45 305.74 1099.56 303.58 C 1107.99 300.00 1118.01 299.67 1126.99 298.80 C 1139.26 297.87 1151.51 296.67 1163.78 295.73 Z" id="p15" />
<path d="M 1822.08 295.74 C 1819.38 318.86 1797.70 339.45 1774.00 338.63 C 1765.75 338.82 1756.48 336.50 1750.50 330.51 C 1745.34 325.32 1745.04 316.95 1748.85 310.90 C 1751.59 306.49 1755.97 304.03 1760.78 302.44 C 1768.81 299.89 1777.44 299.55 1785.77 298.76 C 1797.88 297.83 1809.97 296.64 1822.08 295.74 Z" id="p16" />
<path d="M 254.00 385.71 C 329.46 385.73 404.92 385.70 480.39 385.72 C 480.40 417.30 480.39 448.89 480.39 480.47 C 384.26 480.49 288.13 480.48 192.00 480.48 C 172.13 480.49 152.22 477.70 133.22 471.81 C 121.06 467.92 109.40 462.85 98.17 456.79 C 103.13 453.43 108.42 451.46 113.79 448.76 C 156.24 428.23 198.72 407.75 241.15 387.18 C 245.38 385.00 249.41 385.82 254.00 385.71 Z" id="p17" />
</defs>
<g stroke-width="10pt">
<use stroke="#ffffff" xlink:href="#p0" />
<use stroke="#42af41" xlink:href="#p1" />
<use stroke="#ffffff" xlink:href="#p2" />
<use stroke="#003333" xlink:href="#p3" />
<use stroke="#003333" xlink:href="#p4" />
<use stroke="#42af41" xlink:href="#p5" />
<use stroke="#003333" xlink:href="#p6" />
<use stroke="#42af41" xlink:href="#p7" />
<use stroke="#42af41" xlink:href="#p8" />
<use stroke="#42af41" xlink:href="#p9" />
<use stroke="#003333" xlink:href="#p10" />
<use stroke="#42af41" xlink:href="#p11" />
<use stroke="#42af41" xlink:href="#p12" />
<use stroke="#42af41" xlink:href="#p13" />
<use stroke="#42af41" xlink:href="#p14" />
<use stroke="#ffffff" xlink:href="#p15" />
<use stroke="#ffffff" xlink:href="#p16" />
<use stroke="#42af41" xlink:href="#p17" />
</g>
<g>
<use fill="#ffffff" xlink:href="#p0" />
<use fill="#42af41" xlink:href="#p1" />
<use fill="#ffffff" xlink:href="#p2" />
<use fill="#003333" xlink:href="#p3" />
<use fill="#003333" xlink:href="#p4" />
<use fill="#42af41" xlink:href="#p5" />
<use fill="#003333" xlink:href="#p6" />
<use fill="#42af41" xlink:href="#p7" />
<use fill="#42af41" xlink:href="#p8" />
<use fill="#42af41" xlink:href="#p9" />
<use fill="#003333" xlink:href="#p10" />
<use fill="#42af41" xlink:href="#p11" />
<use fill="#42af41" xlink:href="#p12" />
<use fill="#42af41" xlink:href="#p13" />
<use fill="#42af41" xlink:href="#p14" />
<use fill="#ffffff" xlink:href="#p15" />
<use fill="#ffffff" xlink:href="#p16" />
<use fill="#42af41" xlink:href="#p17" />
</g>
</svg>