<?xml version="1.0" encoding="UTF-8"?>
<!DOCTYPE svg PUBLIC "-//W3C//DTD SVG 1.1//EN" "http://www.w3.org/Graphics/SVG/1.1/DTD/svg11.dtd">
<!-- Creator: CorelDRAW -->
<svg xmlns="http://www.w3.org/2000/svg" xml:space="preserve" width="174.421mm" height="91.3139mm" version="1.1" style="shape-rendering:geometricPrecision; text-rendering:geometricPrecision; image-rendering:optimizeQuality; fill-rule:evenodd; clip-rule:evenodd"
viewBox="0 0 1035.29 542"
 xmlns:xlink="http://www.w3.org/1999/xlink"
 xmlns:xodm="http://www.corel.com/coreldraw/odm/2003">
 <defs>
  <style type="text/css">
   <![CDATA[
    .fil1 {fill:#42AF41;fill-rule:nonzero}
    .fil0 {fill:white;fill-rule:nonzero}
   ]]>
  </style>
 </defs>
 <g id="Layer_x0020_1">
  <metadata id="CorelCorpID_0Corel-Layer"/>
  <g id="_2402288356592">
   <g>
    <g>
     <path class="fil0" d="M82.63 542c-16.56,0 -31.07,-3.77 -43.53,-11.31 -12.46,-7.54 -22.09,-18.07 -28.9,-31.6 -6.8,-13.53 -10.21,-29.22 -10.21,-47.09 0,-18.03 3.4,-33.77 10.21,-47.22 6.8,-13.44 16.43,-23.93 28.9,-31.48 12.46,-7.54 26.96,-11.31 43.53,-11.31 17.05,0 32.05,4.43 45,13.28 12.95,8.85 22.05,20.99 27.3,36.4l-29.27 8.61 -2.7 -0.49c-3.12,-8.2 -8.32,-14.63 -15.62,-19.3 -7.29,-4.67 -15.54,-7.01 -24.71,-7.01 -10.17,0 -18.94,2.42 -26.31,7.25 -7.38,4.84 -13.07,11.64 -17.09,20.41 -4.02,8.77 -6.02,19.06 -6.02,30.86 0,11.8 2.01,22.09 6.02,30.86 4.02,8.77 9.72,15.58 17.09,20.41 7.38,4.84 16.14,7.26 26.31,7.26 9.18,0 17.42,-2.34 24.71,-7.01 7.29,-4.67 12.5,-11.1 15.62,-19.3l2.7 -0.49 29.27 8.61c-5.25,15.41 -14.35,27.54 -27.3,36.4 -12.95,8.85 -27.95,13.28 -45,13.28zm83.36 -3.93l0 -177.06 32.46 -3.93 0.73 1.97 0 68 0 0.75 0 15.1 -10.05 1.63 -0.52 0.08 0.14 -0.34 0.14 -0.34 0.14 -0.34 0.14 -0.34 0.14 -0.34 0.15 -0.34 0.15 -0.34 0.15 -0.33 0.15 -0.33 0.15 -0.33 0.01 -0.02 0.14 -0.3 0 -0.01 0.15 -0.33 0.16 -0.33 0.16 -0.32 0.16 -0.32 0.16 -0.32 0.16 -0.32 0.16 -0.32 0.17 -0.32 0.17 -0.31 0.17 -0.31 0.01 -0.01 0.15 -0.29 0.01 -0.01 0.17 -0.31 0.17 -0.31 0.17 -0.31 0.11 -0.19 0 -0 0.01 -0.01 0.23 -0.4 0.18 -0.3 0.18 -0.3 0.05 -0.08 0.01 -0.02 0 -0 0.3 -0.49 0.18 -0.3 0 -0.01 0.17 -0.27 0.01 -0.02 0.19 -0.29c0.12,-0.2 0.25,-0.39 0.38,-0.58l0.29 -0.43 0 -0 0.09 -0.14 0.19 -0.29 0.2 -0.28 0.05 -0.07 0.04 -0.05 0.02 -0.03 0.28 -0.41 0.2 -0.28 0 -0 0.18 -0.25 0.22 -0.3 0.15 -0.21 0.01 -0.02 0.01 -0.02 0.01 -0.02 0.01 -0.02 0 -0.01 0.01 -0.01 0.01 -0.02 0.01 -0.02 0.01 -0.02 0.01 -0.02 0.01 -0.02 0.01 -0.02 0.01 -0.02 0.01 -0.02 0.01 -0.02 0.01 -0.02 0.01 -0.02 0.01 -0.02 0.01 -0.02 0.01 -0.02 0.08 -0.11 0.01 -0.02 0.02 -0.03 0.01 -0.02 0.05 -0.06 0.01 -0.02 0.01 -0.02 0.11 -0.14 0.01 -0.01 0.01 -0.02 0.01 -0.01 0.01 -0.02 0.01 -0.02 0.01 -0.02 0.01 -0.02 0.01 -0.02 0.02 -0.03 0.01 -0.02 0.01 -0.02 0.01 -0.01 0.01 -0.02 0.01 -0.02 0.01 -0.02 0.01 -0.01 0.01 -0.02 0.01 -0.01 0 -0 0.12 -0.16 0.21 -0.27 0.21 -0.27 0.03 -0.04 0.01 -0.01 0.01 -0.01 0.01 -0.01 0.01 -0.01 0.01 -0.01 0.01 -0.01 0.01 -0.01 0.01 -0.01 0.01 -0.01 0.01 -0.01 0.01 -0.01 0.01 -0.01 0.04 -0.04 0.01 -0.01 0.01 -0.01 0.01 -0.01 0.02 -0.03 0 -0 0.01 -0.01 0.01 -0.01 0.01 -0.01 0.01 -0.01 0.01 -0.01 0.01 -0.01 0.01 -0.01 0.01 -0.01 0.01 -0.01 0.01 -0.01 0.01 -0.01 0.01 -0.01 0.01 -0.01 0.01 -0.01 0.01 -0.01 0 -0 0.01 -0.01 0.01 -0.01 0.01 -0.01 0.01 -0.01 0.01 -0.01 0.01 -0.01 0.01 -0.01 0.01 -0.01 0.01 -0.01 0.01 -0.01 0.01 -0.01 0.01 -0.01 0.01 -0.01 0.01 -0.01 0.01 -0.01 0.01 -0.01 0.01 -0.01 0.01 -0.01 0 -0 0.01 -0.01 0.01 -0.01 0.01 -0.01 0.01 -0.01 0.01 -0.01 0.01 -0.01 0.01 -0.01 0.01 -0.01 0.01 -0.01 0.01 -0.01 0.01 -0.01 0.01 -0.01 0.04 -0.04 0.04 -0.05c0.15,-0.17 0.29,-0.34 0.44,-0.51l0.12 -0.14 0.02 -0.02 0.02 -0.02 0.02 -0.02 0.02 -0.02 0.02 -0.02 0 -0 0.02 -0.02 0.02 -0.02 0.02 -0.02 0.02 -0.02 0.02 -0.02 0.02 -0.02 0.02 -0.02 0.02 -0.02 0.02 -0.02 0.02 -0.02 0.02 -0.02 0.02 -0.02 0 -0 0.02 -0.02 0.02 -0.02 0.02 -0.02 0.02 -0.02 0.02 -0.02 0.02 -0.02 0.02 -0.02 0.02 -0.02 0.02 -0.02 0.02 -0.02 0.02 -0.02 0.01 -0.02 0.01 -0.01 0.02 -0.02 0.02 -0.02 0.02 -0.02 0.02 -0.02 0.02 -0.02 0.02 -0.02 0.02 -0.02 0.02 -0.02 0.02 -0.02 0.02 -0.02 0.02 -0.02 0.01 -0.01 0.01 -0.01 0.02 -0.02 0.02 -0.02 0.02 -0.02 0.02 -0.02 0.02 -0.02 0.02 -0.02 0.02 -0.02 0.02 -0.02 0.02 -0.02 0.02 -0.02 0.02 -0.02 0 -0.01 0.01 -0.02 0.02 -0.02 0.04 -0.04 0.02 -0.02 0.02 -0.02 0.02 -0.02 0.02 -0.02 0.02 -0.02 0.02 -0.02 0.02 -0.02 0.02 -0.02c4.92,-5.24 10.65,-9.3 17.21,-12.17 6.56,-2.87 13.69,-4.3 21.39,-4.3 8.85,0 16.93,1.93 24.22,5.78 7.29,3.85 13.12,9.55 17.46,17.09 4.34,7.54 6.52,16.97 6.52,28.28l0 77.71 -33.2 0 0 -67.14c0,-7.04 -0.95,-12.95 -2.83,-17.7 -1.89,-4.75 -4.63,-8.36 -8.24,-10.82 -3.61,-2.46 -7.95,-3.69 -13.03,-3.69 -3.94,0 -8.28,1.07 -13.04,3.2 -4.76,2.13 -8.9,5.95 -12.42,11.43 -3.53,5.5 -5.29,13.49 -5.29,23.98l0 60.74 -33.2 0zm215.27 -12.57l-0.01 0.01 -0.01 0.01 -0.01 0.01 -0.01 0.01 -0.01 0.01 -0.01 0.01 -0.01 0.01 -0.01 0.01 -0.01 0.01 -0.01 0.01 -0 0 -0.01 0.01 -0.01 0.01 -0.01 0.01 -0.01 0.01 -0.01 0.01 -0.01 0.01 -0.01 0.01 -0.01 0.01 -0.01 0.01 -0.01 0.01 -0.01 0.01 -0.01 0.01 -0.01 0.01 -0.01 0.01 -0.01 0.01 -0.01 0.01 -0.01 0.01 -0.01 0.01 -0.01 0.01 -0.01 0.01 -0.01 0.01 -0.01 0.01 -0.01 0.01 -0.01 0.01 -0.01 0.01 -0.01 0.01 -0.01 0.01 -0.01 0.01 -0.01 0.01 -0.01 0.01 -0.01 0.01 -0.01 0.01 -0.01 0.01 -0.01 0.01 -0.01 0.01 -0 0.01 -0 0 -0.01 0.01 -0.01 0.01 -0.01 0.01 -0.01 0.01 -0.01 0.01 -0.01 0.01 -0.01 0.01 -0.01 0.01 -0.01 0.01 -0.01 0.01 -0.01 0.01 -0.01 0.01 -0.01 0.01 -0.01 0.01 -0.01 0.01 -0.01 0.01 -0.01 0.01 -0.01 0.01 -0.01 0.01 -0.02 0.01 -0.01 0.01 -0.02 0.01 -0.01 0.02 -0.02 0.01 -0.01 0.01 -0.02 0.01 -0.01 0.01 -0 0 -0.03 0.03 -0.02 0.01 -0.01 0.01 -0.02 0.01 -0.01 0.01 -0.02 0.01 -0.01 0.01 -0.02 0.01 -0.01 0.01 -0.02 0.01 -0.02 0.01 -0.02 0.01 -0.01 0.01 -0.02 0.01 -0.03 0.03 -0 0 -0.01 0.01 -0.05 0.04 -0.02 0.01 -0.01 0.01 -0.02 0.01 -0.02 0.01 -0.02 0.01 -0.02 0.01 -0.02 0.01 -0.18 0.17 -0.02 0.01 -0.02 0.01 -0.02 0.01 -0.02 0.01 -0.02 0.01 -0.02 0.01 -0.02 0.01 -0.01 0.01 -0.02 0.01 -0.02 0.01 -0.01 0.01 -0.02 0.01 -0.01 0.01 -0.01 0.01 -0.02 0.01 -0.02 0.01 -0.02 0.01 -0.22 0.2 -0.03 0.03 -0.01 0.01 -0.01 0.01 -0.01 0.01 -0.01 0.01 -0.01 0.01 -0.01 0.01 -0.01 0.01 -0.01 0.01 -0.01 0.01 -0.01 0.01 -0.01 0.01 -0.01 0.01 -0.01 0.01 -0.01 0.01 -0.01 0.01 -0.01 0.01 -0.01 0.01 -0.01 0.01 -0.01 0.01 -0.01 0.01 -0.01 0.01 -0.01 0.01 -0.01 0.01 -0.01 0.01 -0.01 0.01 -0.01 0.01 -0.01 0.01 -0.01 0.01 -0.01 0.01 -0.01 0.01 -0.01 0.01 -0 0 -0.01 0.01 -0.01 0.01 -0.01 0.01 -0.01 0.01 -0.01 0.01 -0.01 0.01 -0.01 0.01 -0.01 0.01 -0.01 0.01 -0.01 0.01 -0.01 0.01 -0.01 0.01 -0.01 0.01 -0.01 0.01 -0.01 0.01 -0.01 0.01 -0.01 0.01 -0.01 0.01 -0.01 0.01 -0.01 0.01 -0.01 0.01 -0.01 0.01 -0.01 0.01 -0.01 0.01 -0.01 0.01 -0.01 0.01 -0.01 0.01 -0.01 0.01 -0.01 0.01 -0.01 0.01 -0.01 0.01 -0.01 0.01 -0.01 0.01 -0.02 0.02 -0.24 0.21 -0.02 0.02 -0.02 0.02 -0 0 -0.02 0.02 -0.02 0.02 -0.02 0.02 -0.02 0.02 -0.02 0.02 -0.02 0.02 -0.02 0.02 -0.02 0.02 -0.02 0.02 -0.02 0.02 -0.02 0.02 -0.02 0.02 -0.04 0.04 -0.02 0.02 -0.02 0.02 -0.02 0.02 -0.02 0.02 -0.02 0.02 -0.02 0.02 -0.02 0.02 -0.02 0.02 -0.02 0.02 -0.02 0.02 -0.02 0.02 -0.02 0.02 -0.04 0.03 -0 0 -0.02 0.01 -0.02 0.02 -0.02 0.02 -0.02 0.02 -0.02 0.02 -0.04 0.03 -0.02 0.02 -0.02 0.02 -0.02 0.02 -0.14 0.12 -0.02 0.02 -0.02 0.02 -0.02 0.02 -0.02 0.02 -0.02 0.02 -0.02 0.02 -0.02 0.02 -0.02 0.02 -0.02 0.02 -0.02 0.02 -0.02 0.02 -0.01 0.01 -0.01 0.01 -0.02 0.02 -0.02 0.02 -0.02 0.02 -0.02 0.02 -0.02 0.02 -0.01 0.01 -0.16 0.13 -0.07 0.06 -0.01 0.01 -0 0 -0.01 0.01 -0.19 0.16 -0.07 0.06 -0.22 0.18 -0.05 0.04 -0.01 0.01 -0.01 0.01 -0.01 0.01 -0.01 0.01 -0.01 0.01 -0.01 0.01 -0.01 0.01 -0.01 0.01 -0.01 0.01 -0.01 0.01 -0.01 0.01 -0.01 0.01 -0.01 0.01 -0.01 0.01 -0.01 0.01 -0.01 0.01 -0.01 0.01 -0.01 0.01 -0.01 0.01 -0 0 -0.01 0.01 -0.01 0.01 -0.01 0.01 -0.01 0.01 -0.01 0.01 -0.01 0.01 -0.01 0.01 -0.01 0.01 -0.01 0.01 -0.01 0.01 -0.01 0.01 -0.01 0.01 -0.01 0.01 -0.01 0.01 -0.01 0.01 -0.01 0.01 -0.01 0.01 -0.01 0.01 -0.01 0.01 -0.01 0.01 -0.01 0.01 -0.01 0.01 -0.02 0.02 -0 0 -0.01 0.01 -0.01 0.01 -0.01 0.01 -0.01 0.01 -0.01 0.01 -0.01 0.01 -0.01 0.01 -0.01 0.01 -0.01 0.01 -0.01 0.01 -0.01 0.01 -0.01 0.01 -0.01 0.01 -0.01 0.01 -0.01 0.01 -0.01 0.01 -0.01 0.01 -0.01 0.01 -0.01 0.01 -0.01 0.01 -0.01 0.01 -0.03 0.02 -0.3 0.23 -0.02 0.02 -0.01 0.01 -0.03 0.02 -0.01 0.01 -0.01 0.01 -0.01 0.01 -0.01 0.01 -0.01 0.01 -0.01 0.01 -0.01 0.01 -0.01 0.01 -0.01 0.01 -0.01 0.01 -0.01 0.01 -0.01 0.01 -0.01 0.01 -0.01 0.01 -0.01 0.01 -0.01 0.01 -0.01 0.01 -0.01 0.01 -0.01 0.01 -0.01 0 -0.01 0.01 -0.03 0.02 -0.01 0.01 -0.01 0.01 -0.01 0.01 -0.01 0.01 -0.01 0.01 -0.01 0.01 -0.01 0.01 -0.01 0.01 -0.01 0.01 -0.01 0.01 -0.01 0.01 -0.01 0.01 -0.01 0.01 -0.03 0.02 -0.01 0.01 -0.01 0.01 -0.09 0.07 -0.01 0.01 -0.01 0.01 -0.01 0.01 -0.01 0.01 -0.01 0.01 -0.01 0.01 -0.01 0.01 -0.01 0.01 -0.01 0.01 -0 0 -0.13 0.1 -0.15 0.11 -0.16 0.11 -0.12 0.09 -0.18 0.13 -0.1 0.07 -0.21 0.15 -0.07 0.05 -0.08 0.06 -0.01 0.01 -0.19 0.13 -0.26 0.18 -0.02 0.01 -0.28 0.19 -0.01 0.01 -0.28 0.19 -0.04 0.02 -0.25 0.17 -0.06 0.04 -0.22 0.15 -0.09 0.06 -0.2 0.13 -0.12 0.08 -0.03 0.02 -0.27 0.17 -0.02 0.01 -0.15 0.09 -0.17 0.11 -0.12 0.07 -0.2 0.13 -0.09 0.06 -0.23 0.14 -0.33 0.2 -0.04 0.02 -0.29 0.17 -0.01 0.01 -0.3 0.18 -0.02 0.01 -0.28 0.16 -0.05 0.03 -0.33 0.19 -0.23 0.13 -0.11 0.06 -0.2 0.11 -0.13 0.07 -0.17 0.09 -0.27 0.14 -0.04 0.02 -0.19 0.1 -0.12 0.06 -0.22 0.12 -0.01 0.01 -0.33 0.17 -0.06 0.03 -0.28 0.15 -0.03 0.02 -0.32 0.16c-7.38,3.69 -15.66,5.53 -24.84,5.53 -8.53,0 -16.11,-1.64 -22.75,-4.92 -6.64,-3.28 -11.85,-7.87 -15.61,-13.77 -3.77,-5.9 -5.66,-12.62 -5.66,-20.17 0,-12.13 4.14,-21.76 12.42,-28.89 8.28,-7.13 20.37,-11.35 36.27,-12.67l34.01 -2.93 14.44 -1.25 0 26.56 -14.41 1.2 0 -0 0 -0.04 0 -0.05 0 -0.05 0 -0.05 0 -0.05 0 -0.02 0 -0.03 0 -0.05 0 -0.05 0 -0.05 0 -0.05 0 -0.03 0 -0.01 0 -0.05 0 -0.05 0 -0.05 0 -0.05 0 -0.05 0 -0 0 -0.05 0 -0.05 0 -0.05 0 -0.05 0 -0.05 0 -0.02 0 -0.03 0 -0.05 0 -0.05 0 -0.05 0 -0.05 0 -0.03 0 -0.01 0 -0.05 0 -0.05 0 -0.05 0 -0.05 0 -0.05 0 -0 0 -0.05 0 -0.09 0 -0.05 0 -0.05 0 -0.02 0 -0.03 0 -0.05 0 -0.05 0 -0.05 0 -0.05 0 -0.03 0 -0.01 0 -0.14 0 -0.05 0 -0.05 0 -0.05 0 -0.05 0 -0.05 0 -0.05 0 -0.05 0 -0.02 0 -0.03 0 -0.05 0 -0.05 0 -0.05 0 -0.05 0 -0.03 0 -0.02 0 -0.05 0 -0.05 0 -0.05 0 -0.05 0 -0.05 0 -20.41 -0 -0.31 -0 -0.02 0 -0.03 -0 -0.05 -0 -0.15 -0 -0.05 -0 -0.05 0 -0 -0 -0.05 -0 -0.15 -0 -0.05 -0 -0.05 -0 -0.02 -0 -0.03 -0 -0.05 -0 -0.05 -0.01 -0.15 -0 -0.04 0 -0.01 -0 -0.05 -0.01 -0.15 -0 -0.05 -0 -0.05 -0 -0.02 -0 -0.03 -0 -0.05 -0.01 -0.1 -0 -0.05 -0 -0.05 -0 -0.04 -0 -0.01 -0 -0.05 -0 -0.05 -0.01 -0.1 -0 -0.05 -0 -0.05 -0 -0.01 -0 -0.04 -0 -0.05 -0 -0.05 -0 -0.05 -0 -0.05 -0 -0.05 -0 -0.04 -0 -0.01 -0 -0.05 -0.02 -0.19 0 -0 -0 -0.05 -0 -0.01 -0 -0.04 -0 -0.05 -0.01 -0.05 -0.01 -0.05 -0.01 -0.05 -0.01 -0.05 -0 -0.03 -0.03 -0.23 -0 -0.02 -0.02 -0.15 -0 -0.01 -0 -0.03 -0.01 -0.05 -0.02 -0.13 -0.05 -0.31 -0.05 -0.31 -0.01 -0.04 -0.04 -0.26 -0.08 -0.43 -0.02 -0.08 -0.02 -0.1 -0.01 -0.06 -0.04 -0.18 -0.01 -0.06 -0.01 -0.04 -0.04 -0.2 -0.01 -0.06 -0.07 -0.3 -0 -0.01 -0.06 -0.25 -0.01 -0.03 -0.08 -0.29 -0.02 -0.06 -0.05 -0.2 -0.01 -0.04 -0.01 -0.04 -0.06 -0.2 -0.02 -0.05 -0.02 -0.08 -0.02 -0.07 -0.04 -0.14 -0.01 -0.03 -0.08 -0.24 -0 -0.01 -0.03 -0.09 -0.06 -0.19 -0 -0.01 -0.01 -0.02 -0.08 -0.23 -0.01 -0.03 -0.02 -0.05 -0.07 -0.19 -0.02 -0.04 -0.11 -0.28 -0.11 -0.28 -0 -0.01 -0.1 -0.23 -0.01 -0.04 -0.12 -0.27 -0.02 -0.06 -0.08 -0.18 -0.02 -0.04 -0.05 -0.11 -0.02 -0.05 -0.08 -0.17 -0 -0.01 -0.1 -0.2 -0.01 -0.03 -0.11 -0.22 -0.01 -0.01 -0.14 -0.26 -0.03 -0.06 -0.09 -0.17 -0.02 -0.03 -0.07 -0.13 -0.03 -0.06 -0.08 -0.14 -0.04 -0.08 -0.09 -0.16 0 0 -0.12 -0.21 -0 -0.01 -0.13 -0.21 -0.02 -0.03 -0.02 -0.04 -0.12 -0.19 -0.01 -0.02 -0.09 -0.14 -0.02 -0.04 -0.08 -0.12 -0 -0 -0.01 -0.01 -0.01 -0.01 -0.02 -0.03 -0.1 -0.15 -0.17 -0.25 -0.02 -0.02 -0.14 -0.21 -0.01 -0.02 -0.18 -0.24 -0.11 -0.15 -0.03 -0.04 -0.04 -0.05 -0.04 -0.05 -0.12 -0.16 -0.02 -0.03 -0.01 -0.02 -0.14 -0.17 -0.04 -0.05 -0.19 -0.24 -0.19 -0.23 -0.14 -0.16 -0.03 -0.03 0 -0 -0.11 -0.13 -0.05 -0.06 -0.01 -0.01 -0.11 -0.12 -0.04 -0.04 -0.12 -0.14 -0 0 -0.19 -0.21 -0.01 -0.01 -0.02 -0.02 -0.18 -0.19 -0.02 -0.02 -0.21 -0.22 -0.02 -0.02 -0.18 -0.19 -0.02 -0.02 -0.22 -0.22 -0.22 -0.22 -0.23 -0.22c-4.92,-4.59 -11.15,-6.88 -18.69,-6.88 -7.05,0 -12.71,1.76 -16.97,5.29 -4.26,3.53 -6.81,7.42 -7.62,11.68l-2.7 0 -28.03 -5.9c2.46,-11.15 8.56,-20.49 18.32,-28.03 9.75,-7.54 22.09,-11.31 37.01,-11.31 18.03,0 32.25,5.08 42.67,15.25 10.41,10.17 15.61,24.51 15.61,43.04l0 70.58 -28.77 0 0 -14.8 0 -21.59 12.05 0c-1.97,7.22 -5.53,13.9 -10.7,20.04l-0.02 0.02 -0.02 0.02 -0.02 0.02 -0.02 0.02 -0.02 0.02 -0.02 0.02 -0.02 0.02 -0.02 0.02 -0.02 0.02 -0.02 0.02 -0.02 0.02 -0.01 0.02 -0.01 0.01 -0.02 0.02 -0.02 0.02 -0.02 0.02 -0.02 0.02 -0.02 0.02 -0.02 0.02 -0.02 0.02 -0.02 0.02 -0.02 0.02 -0.02 0.02 -0.02 0.02 -0.01 0.01 -0.01 0.02 -0.02 0.02 -0.02 0.02 -0.02 0.02 -0.02 0.02 -0.02 0.02 -0.02 0.02 -0.02 0.02 -0.02 0.02 -0.02 0.02 -0.02 0.02 -0.02 0.02 -0 0 -0.02 0.02 -0.02 0.02 -0.02 0.02 -0.02 0.02 -0.02 0.02 -0.02 0.02 -0.02 0.02 -0.02 0.02 -0.02 0.02 -0.02 0.02 -0.02 0.02 -0.01 0.02 -0.01 0.01 -0.02 0.02 -0.02 0.02 -0.02 0.02 -0.02 0.02 -0.02 0.02 -0.02 0.02 -0.02 0.02 -0.02 0.02 -0.02 0.02 -0.02 0.02 -0.02 0.02 -0.01 0.01 -0.01 0.01 -0.02 0.02 -0.02 0.02 -0.02 0.02 -0.02 0.02 -0.02 0.02 -0.22 0.25 -0.02 0.02 -0.01 0.01 -0.01 0.01 -0.01 0.01 -0.01 0.01 -0.01 0.01 -0.01 0.01 -0.01 0.01 -0.01 0.01 -0.01 0.01 -0.01 0.01 -0.01 0.01 -0.01 0.01 -0.01 0.01 -0.01 0.01 -0.01 0.01 -0.01 0.01 -0.01 0.01 -0.01 0.01 -0.01 0.01 -0.01 0.01 0 0 -0.01 0.01 -0.01 0.01 -0.01 0.01 -0.01 0.01 -0.01 0.01 -0.01 0.01 -0.01 0.01 -0.01 0.01 -0.01 0.01 -0.01 0.01 -0.01 0.01 -0.01 0.01 -0.01 0.01 -0.01 0.01 -0.01 0.01 -0.01 0.01 -0.01 0.01 -0.01 0.01 -0.01 0.01 -0.01 0.01 -0.01 0.01 -0.01 0.01 -0.01 0.01 -0.01 0.01 -0.01 0.01 -0.01 0.01 -0.01 0.01 -0.01 0.01 -0.01 0.01 -0.01 0.01 -0.01 0.01 -0.01 0.01 -0.01 0.01 -0.01 0.01 -0.01 0.01 -0.01 0.01 -0 0 -0.01 0 -0.01 0.01 -0.01 0.01 -0.01 0.01 -0.01 0.01 -0.01 0.01 -0.01 0.01 -0 0 -0.2 0.21 -0.26 0.27 -0.01 0.01 -0.24 0.25 -0.01 0.01 -0.23 0.24 -0.2 0.2 -0.04 0.04 -0.05 0.05 -0.19 0.19zm-5.5 -28.37l0.13 -0.22 0.13 -0.22 0.13 -0.22 0.12 -0.22 0.01 -0.01 0.1 -0.18 0.02 -0.03 0.08 -0.15 0.04 -0.07 0.12 -0.22 0.12 -0.22 0.01 -0.03 0.09 -0.18 0.01 -0.01 0.08 -0.17 0.03 -0.06 0.11 -0.22 0.11 -0.22 0.02 -0.04 0.09 -0.18 0 -0 0.1 -0.22 0.1 -0.22 0.1 -0.23 0.1 -0.23 0.01 -0.01 0.08 -0.18 0.01 -0.03 0.09 -0.23 0.08 -0.21 0.01 -0.02 0.09 -0.23 0.01 -0.03 0.07 -0.19 0.01 -0.01 0.08 -0.23 0.08 -0.23 0.07 -0.2 0.01 -0.02 0.01 -0.04 0.06 -0.19 0 -0 0.08 -0.23 0.07 -0.23 0.07 -0.23 0.07 -0.23 0 -0.01 0.06 -0.19 0.01 -0.03 0.07 -0.23 0.06 -0.23 0.06 -0.23 0.01 -0.03 0.05 -0.19 0 -0.01 0.06 -0.23 0.06 -0.23 0.05 -0.23 0.01 -0.04 0.04 -0.19 0 -0 0.05 -0.24 0.05 -0.24 0.05 -0.24 0.01 -0.06 0.03 -0.18 0 -0.01 0.03 -0.19 0.01 -0.03 0.04 -0.24 0.04 -0.24 0.01 -0.07 0.01 -0.06 0 -0.01 0.02 -0.12 0.03 -0.19 0 -0.02 0.03 -0.24 0.03 -0.24 0.03 -0.24 0.03 -0.24 -29.85 2.49c-7.05,0.66 -12.01,2.13 -14.88,4.43 -2.87,2.3 -4.3,5.25 -4.3,8.85 0,3.61 1.72,6.52 5.16,8.73 3.44,2.21 7.78,3.32 13.03,3.32 5.74,0 10.94,-1.48 15.62,-4.43 4.67,-2.95 8.4,-6.76 11.19,-11.43zm-185.22 -56.87l0.11 -0.24 0.04 -0.09 -0.16 0.32zm0.97 -1.92l0.04 -0.07 0.13 -0.25 0.02 -0.04 0.15 -0.27 -0.33 0.63zm0.5 -0.94l0.15 -0.27 0.02 -0.04 -0.17 0.31zm1.59 -2.74l0.02 -0.03 0.16 -0.26 -0.18 0.3zm0.56 -0.88l0.14 -0.22 0.17 -0.27 0.06 -0.09 -0.38 0.58zm1.55 -2.29l0.02 -0.03 0.18 -0.25 -0.2 0.28zm0.39 -0.54l0.19 -0.25 0.03 -0.05 -0.22 0.3zm2.54 -3.24l0.44 -0.51 -0.44 0.51zm0.57 15.2l-10.57 1.72 10.57 -1.72zm273.95 95.17c-12.95,0 -23.24,-4.06 -30.86,-12.17 -7.62,-8.12 -11.44,-19.14 -11.44,-33.07l0 -50.41 0 -29.26 0 -31.48 33.2 0 0 31.48 0 29.26 0 46.72c0,6.07 1.76,10.86 5.28,14.38 3.52,3.53 8.32,5.29 14.39,5.29l11.8 0 1.23 2.7 0 26.56 -23.61 0zm-63.44 -124.93l21.14 0 33.2 0 32.71 0 0 29.26 -32.71 0 -33.2 0 -21.14 0 0 -29.26z"/>
    </g>
    <path class="fil1" d="M571.99 542c-12.29,0 -23.32,-2.13 -33.07,-6.39 -9.76,-4.26 -17.87,-10.29 -24.35,-18.07 -6.48,-7.79 -10.78,-16.85 -12.91,-27.17l30.25 -7.87 2.7 0.49c2.29,5.74 5.33,10.74 9.1,15 3.77,4.26 8.19,7.54 13.28,9.84 5.08,2.3 10.58,3.44 16.48,3.44 5.74,0 10.78,-0.9 15.12,-2.7 4.34,-1.8 7.78,-4.3 10.33,-7.5 2.54,-3.2 3.81,-6.84 3.81,-10.94 0,-4.75 -1.6,-8.69 -4.8,-11.8 -3.2,-3.11 -8.32,-5.57 -15.37,-7.38l-29.51 -7.62c-15.25,-3.93 -26.89,-10.41 -34.92,-19.43 -8.03,-9.02 -12.05,-19.51 -12.05,-31.48 0,-10 2.54,-18.77 7.62,-26.31 5.08,-7.54 12.17,-13.44 21.27,-17.71 9.1,-4.26 19.63,-6.39 31.6,-6.39 11.47,0 21.76,1.97 30.86,5.9 9.1,3.94 16.64,9.55 22.63,16.85 5.98,7.3 9.96,16.03 11.93,26.19l-28.03 6.15 -2.7 -0.49c-1.97,-7.7 -5.99,-13.61 -12.05,-17.71 -6.07,-4.1 -13.69,-6.15 -22.87,-6.15 -7.87,0 -14.14,1.89 -18.81,5.66 -4.67,3.77 -7.01,8.36 -7.01,13.77 0,4.92 1.76,9.06 5.29,12.42 3.53,3.36 8.81,5.95 15.86,7.75l29.51 7.62c15.25,3.94 26.72,10.05 34.43,18.32 7.71,8.28 11.56,18.49 11.56,30.62 0,10.66 -2.7,20 -8.11,28.03 -5.41,8.04 -13,14.23 -22.75,18.57 -9.75,4.34 -21.19,6.52 -34.3,6.52zm229.69 -44.88l0.13 -0.22 0.13 -0.22 0.13 -0.22 0.12 -0.22 0.01 -0.01 0.1 -0.18 0.01 -0.03 0.08 -0.15 0.04 -0.07 0.12 -0.22 0.12 -0.22 0.01 -0.03 0.09 -0.18 0.01 -0.01 0.08 -0.17 0.03 -0.06 0.11 -0.22 0.11 -0.22 0.02 -0.04 0.08 -0.18 0 -0 0.1 -0.22 0.1 -0.22 0.1 -0.23 0.1 -0.23 0.01 -0.01 0.08 -0.18 0.01 -0.03 0.09 -0.23 0.08 -0.21 0.01 -0.02 0.09 -0.23 0.01 -0.03 0.07 -0.19 0.01 -0.01 0.08 -0.23 0.08 -0.23 0.07 -0.2 0.01 -0.02 0.01 -0.04 0.06 -0.19 0 -0 0.08 -0.23 0.07 -0.23 0.07 -0.23 0.07 -0.23 0 -0.01 0.06 -0.19 0.01 -0.03 0.07 -0.23 0.06 -0.23 0.06 -0.23 0.01 -0.03 0.05 -0.19 0 -0.01 0.06 -0.23 0.06 -0.23 0.05 -0.23 0.01 -0.04 0.04 -0.19 0 -0 0.05 -0.24 0.05 -0.24 0.05 -0.24 0.01 -0.06 0.03 -0.18 0 -0.01 0.03 -0.19 0.01 -0.03 0.04 -0.24 0.04 -0.24 0.01 -0.07 0.01 -0.06 0 -0.01 0.02 -0.12 0.03 -0.19 0 -0.02 0.03 -0.24 0.03 -0.24 0.03 -0.24 0.03 -0.24 -29.85 2.49c-7.05,0.66 -12.01,2.13 -14.88,4.43 -2.87,2.3 -4.3,5.25 -4.3,8.85 0,3.61 1.72,6.52 5.16,8.73 3.44,2.21 7.78,3.32 13.03,3.32 5.74,0 10.94,-1.48 15.62,-4.43 4.67,-2.95 8.4,-6.76 11.19,-11.43zm3.92 -39.12l-0.05 -0.31 -0.05 -0.31 -0.01 -0.04 -0.04 -0.26 -0.08 -0.43 -0.02 -0.08 -0.02 -0.1 -0.01 -0.06 -0.04 -0.18 -0.01 -0.06 -0.01 -0.04 -0.04 -0.2 -0.01 -0.06 -0.07 -0.3 -0 -0.01 -0.06 -0.25 -0.01 -0.03 -0.08 -0.29 -0.05 -0.17 -0.01 -0.02 -0.06 -0.2 -0.01 -0.02 -0.05 -0.17 -0.02 -0.08 -0.02 -0.07 -0.04 -0.14 -0.01 -0.03 -0.08 -0.24 -0 -0.01 -0.08 -0.23 -0 -0 -0.05 -0.14 -0 -0.01 -0.01 -0.02 -0.01 -0.03 -0.02 -0.06 -0.03 -0.08 -0.03 -0.07 -0.06 -0.17 -0.02 -0.04 -0.04 -0.09 -0.03 -0.08 -0.15 -0.38 -0 -0.01 -0.1 -0.23 -0.01 -0.04 -0.05 -0.12 -0.05 -0.11 -0.07 -0.15 -0.04 -0.08 -0.04 -0.08 -0.03 -0.07 -0.04 -0.09 -0.08 -0.17 -0.01 -0.03 -0.01 -0.03 -0.01 -0.01 -0 -0 -0.08 -0.16 -0.11 -0.22 -0.01 -0.01 -0.11 -0.21 -0 -0 -0 -0 -0.1 -0.2 -0 -0 -0.01 -0.03 -0.1 -0.18 -0.02 -0.03 -0.07 -0.13 -0.02 -0.03 -0.12 -0.21 -0.01 -0.02 -0.15 -0.26 -0 -0.01 -0.13 -0.21 -0.02 -0.03 -0.05 -0.08 -0.02 -0.04 -0.02 -0.03 -0.03 -0.05 -0.11 -0.17 -0.03 -0.05 -0.09 -0.14 0 -0 -0.01 -0.01 -0.01 -0.01 -0.02 -0.03 -0.1 -0.15 -0.04 -0.06 -0.03 -0.04 -0.01 -0.01 -0.11 -0.15 -0.14 -0.21 -0.01 -0.02 -0.14 -0.19 -0.01 -0.01 -0.03 -0.04 -0.08 -0.11 -0.05 -0.07 -0.05 -0.06 -0.04 -0.05 -0.12 -0.16 -0.02 -0.03 -0.06 -0.08 -0.05 -0.07 -0.01 -0.02 -0.25 -0.31 -0 -0 -0.16 -0.2 -0.03 -0.03 -0.2 -0.23 -0.04 -0.05 -0.12 -0.14 -0.04 -0.04 -0.2 -0.23 -0.21 -0.23 -0.02 -0.02 -0.18 -0.19 -0.1 -0.11 -0.01 -0.01 -0.07 -0.07 -0.05 -0.05 -0.02 -0.02 -0.18 -0.19 -0.02 -0.02 -0.22 -0.22 -0.22 -0.22 -0.23 -0.22c-4.92,-4.59 -11.15,-6.88 -18.69,-6.88 -7.05,0 -12.71,1.76 -16.97,5.29 -4.26,3.53 -6.81,7.42 -7.62,11.68l-2.7 0 -28.03 -5.9c2.46,-11.15 8.56,-20.49 18.32,-28.03 9.75,-7.54 22.09,-11.31 37.01,-11.31 18.03,0 32.25,5.08 42.67,15.25 10.41,10.17 15.61,24.51 15.61,43.04l0 70.58 -28.77 0 0 -14.8 0 -21.59 12.05 0c-1.97,7.22 -5.53,13.9 -10.7,20.04l-0.02 0.02 -0.02 0.02 -0.02 0.02 -0.02 0.02 -0.02 0.02 -0.02 0.02 -0.02 0.02 -0.02 0.02 -0.02 0.02 -0.02 0.02 -0.02 0.02 -0.01 0.02 -0.01 0.01 -0.02 0.02 -0.02 0.02 -0.02 0.02 -0.02 0.02 -0.02 0.02 -0.02 0.02 -0.02 0.02 -0.02 0.02 -0.02 0.02 -0.02 0.02 -0.02 0.02 -0.01 0.01 -0.01 0.02 -0.02 0.02 -0.02 0.02 -0.02 0.02 -0.02 0.02 -0.02 0.02 -0.02 0.02 -0.02 0.02 -0.02 0.02 -0.02 0.02 -0.02 0.02 -0.02 0.02 -0 0 -0.02 0.02 -0.02 0.02 -0.02 0.02 -0.02 0.02 -0.02 0.02 -0.02 0.02 -0.02 0.02 -0.02 0.02 -0.02 0.02 -0.02 0.02 -0.02 0.02 -0.01 0.02 -0.01 0.01 -0.02 0.02 -0.02 0.02 -0.02 0.02 -0.02 0.02 -0.02 0.02 -0.02 0.02 -0.02 0.02 -0.02 0.02 -0.02 0.02 -0.02 0.02 -0.02 0.02 -0.01 0.01 -0.01 0.01 -0.02 0.02 -0.02 0.02 -0.02 0.02 -0.02 0.02 -0.02 0.02 -0.22 0.25 -0.02 0.02 -0.03 0.03 -0.03 0.03 -0.39 0.42 -0 0 -0.2 0.21 -0.26 0.27 -0.01 0.01 -0.24 0.25 -0.01 0.01 -0.26 0.27 -0.02 0.02 -0.01 0.01 -0.01 0.01 -0.01 0.01 -0.01 0.01 -0.01 0.01 -0.01 0.01 -0.01 0.01 -0.01 0.01 -0.01 0.01 -0.01 0.01 -0.01 0.01 -0.01 0.01 -0.01 0.01 -0.01 0.01 -0.01 0.01 -0.01 0.01 -0.01 0.01 -0.01 0.01 -0.01 0.01 -0.01 0.01 -0.01 0.01 -0.01 0.01 -0.01 0.01 -0.01 0.01 -0.01 0.01 -0.01 0.01 -0.01 0.01 -0.01 0.01 -0.01 0.01 -0.01 0.01 -0.01 0.01 -0 0 -0.01 0.01 -0.01 0.01 -0.01 0.01 -0.01 0.01 -0.01 0.01 -0.01 0.01 -0.01 0.01 -0.01 0.01 -0.01 0.01 -0.01 0.01 -0.01 0.01 -0.01 0.01 -0.01 0.01 -0.01 0.01 -0.01 0.01 -0.01 0.01 -0.01 0.01 -0.01 0.01 -0.01 0.01 -0.01 0.01 -0.01 0.01 -0.01 0.01 -0.01 0.01 -0.01 0.01 -0.01 0.01 -0.48 0.47 -0.01 0.01 -0.24 0.23 -0.15 0.14 -0.1 0.09 -0.17 0.16 -0.08 0.07 -0.02 0.02 -0.01 0.01 -0.01 0.01 -0.01 0.01 -0.01 0.01 -0.01 0.01 -0.01 0.01 -0.01 0.01 -0.01 0.01 -0.01 0.01 -0.01 0.01 -0.01 0.01 -0.01 0.01 -0.01 0.01 -0.01 0.01 -0.01 0.01 -0.01 0.01 -0.01 0.01 -0.01 0.01 -0.01 0.01 -0.01 0.01 -0.01 0.01 -0.01 0.01 -0.01 0.01 -0.01 0.01 -0.01 0.01 -0 0 -0.01 0.01 -0.01 0.01 -0.01 0.01 -0.01 0.01 -0.01 0.01 -0.01 0.01 -0.01 0.01 -0.01 0.01 -0.01 0.01 -0.01 0.01 -0.01 0.01 -0.01 0.01 -0.01 0.01 -0.01 0.01 -0.01 0.01 -0.01 0.01 -0.01 0.01 -0.01 0.01 -0.01 0.01 -0.01 0.01 -0.01 0.01 -0.01 0.01 -0.01 0.01 -0.01 0.01 -0.01 0.01 -0.01 0.01 -0.01 0.01 -0.01 0.01 -0.01 0.01 -0.01 0.01 -0.01 0.01 -0.01 0.01 -0.01 0.01 -0.01 0.01 -0.01 0.01 -0.01 0.01 -0.01 0.01 -0.03 0.03 -0.01 0.01 -0.01 0.01 -0.01 0.01 -0.01 0.01 -0.01 0.01 -0.01 0.01 -0.01 0.01 -0.01 0.01 -0.01 0.01 -0.01 0.01 -0.01 0.01 -0.01 0.01 -0.01 0.01 -0.01 0.01 -0.01 0.01 -0.01 0.01 -0.01 0.01 -0.01 0.01 -0.01 0.01 -0.01 0.01 -0.01 0.01 -0.01 0.01 -0.01 0.01 -0.01 0.01 -0.01 0.01 -0.01 0.01 -0.01 0.01 -0.01 0.01 -0.01 0.01 -0.01 0.01 -0.01 0.01 -0 0 -0.01 0.01 -0.01 0.01 -0.01 0.01 -0.01 0.01 -0.01 0.01 -0.01 0.01 -0.01 0.01 -0.01 0.01 -0.01 0.01 -0.01 0.01 -0.01 0.01 -0.01 0.01 -0.01 0.01 -0.01 0.01 -0.01 0.01 -0.01 0.01 -0.01 0.01 -0.01 0.01 -0.01 0.01 -0.01 0.01 -0.01 0.01 -0.01 0.01 -0.01 0.01 -0.01 0.01 -0.01 0.01 -0.01 0.01 -0.01 0.01 -0.01 0.01 -0.01 0.01 -0.01 0.01 -0.01 0.01 -0.01 0.01 -0.01 0.01 -0.02 0.02 -0.02 0.02 -0.02 0.02 -0.02 0.02 -0.02 0.02 -0.02 0.02 -0.02 0.02 -0.02 0.02 -0.04 0.03 -0.02 0.02 -0.02 0.02 -0.02 0.02 -0.02 0.02 -0.02 0.02 -0.01 0.01 -0.01 0.01 -0.02 0.02 -0.02 0.02 -0.02 0.02 -0.02 0.02 -0.02 0.02 -0.02 0.02 -0.02 0.02 -0.02 0.02 -0.02 0.02 -0.02 0.02 -0.02 0.02 -0.02 0.02 -0.02 0.02 -0.02 0.02 -0.01 0.01 -0.01 0.01 -0.02 0.02 -0.02 0.02 -0.02 0.02 -0.02 0.02 -0.02 0.02 -0.02 0.02 -0.02 0.02 -0.02 0.02 -0.02 0.02 -0.02 0.02 -0.02 0.02 -0.02 0.02 -0.02 0.02 -0.02 0.02 0 0 -0.02 0.02 -0.02 0.02 -0.02 0.02 -0.02 0.02 -0.02 0.02 -0.02 0.02 -0.02 0.02 -0.02 0.02 -0.02 0.02 -0.02 0.02 -0.02 0.02 -0.02 0.02 -0.02 0.02 -0.02 0.02 -0.01 0.01 -0.01 0 -0.02 0.02 -0.02 0.02 -0.02 0.02 -0.02 0.02 -0.02 0.02 -0.04 0.04 -0.14 0.12 -0.12 0.1 -0.16 0.14 -0.1 0.08 -0.07 0.06 -0.01 0.01 -0.01 0.01 -0.01 0.01 -0.01 0.01 -0.01 0.01 -0.01 0.01 -0.01 0.01 -0.01 0.01 -0.01 0.01 -0.01 0.01 -0.01 0.01 -0 0 -0.01 0.01 -0.01 0.01 -0.01 0.01 -0.01 0.01 -0.01 0.01 -0.01 0.01 -0.01 0.01 -0.01 0.01 -0.01 0.01 -0.01 0.01 -0.01 0.01 -0.01 0.01 -0.01 0.01 -0.01 0.01 -0.01 0.01 -0.01 0.01 -0.01 0.01 -0.01 0.01 -0.01 0.01 -0.01 0.01 -0.01 0.01 -0.01 0.01 -0.01 0.01 -0.01 0.01 -0.01 0.01 -0.01 0.01 -0.01 0.01 -0 0 -0.01 0.01 -0.01 0.01 -0.01 0.01 -0.01 0.01 -0.01 0.01 -0.01 0.01 -0.01 0.01 -0.01 0.01 -0.01 0.01 -0.01 0.01 -0.01 0.01 -0.01 0.01 -0.01 0.01 -0.01 0.01 -0.01 0.01 -0.01 0.01 -0.01 0.01 -0.01 0.01 -0.01 0.01 -0.01 0.01 -0.01 0.01 -0.01 0.01 -0.01 0.01 -0.01 0.01 -0.01 0.01 -0.01 0.01 -0.01 0.01 -0.02 0.02 -0.27 0.21 0 0 -0.27 0.21 -0.02 0.01 -0.01 0.01 -0.01 0.01 -0.07 0.05 -0.02 0.01 -0.02 0.01 -0.02 0.01 -0.02 0.01 -0.02 0.01 -0.02 0.01 -0.02 0.01 -0.02 0.01 -0.02 0.01 -0.02 0.01 -0.02 0.01 -0.02 0.01 -0.02 0.01 -0.02 0.01 -0.02 0.01 -0.02 0.01 -0.02 0.01 -0.02 0.01 -0.02 0.01 -0.02 0.01 -0.02 0.01 -0.02 0.01 -0.02 0.01 -0.02 0.01 -0.02 0.01 -0.02 0.01 -0.02 0.01 -0.02 0.01 -0.03 0.03 -0.01 0.01 -0.01 0 -0.02 0.01 -0.02 0.01 -0.02 0.01 -0.02 0.01 -0.02 0.01 -0.02 0.01 -0.02 0.01 -0.02 0.01 -0.02 0.01 -0.02 0.01 -0.02 0.01 -0.02 0.01 -0.02 0.01 -0.02 0.01 -0.02 0.01 -0.04 0.03 -0.03 0.02 -0.02 0.01 -0.03 0.02 -0.02 0.01 -0.02 0.01 -0.02 0.01 -0.02 0.01 -0.02 0.01 -0 0 -0.13 0.1 -0.15 0.11 -0.16 0.11 -0.12 0.09 -0.18 0.13 -0.1 0.07 -0.21 0.15 -0.07 0.05 -0.24 0.17 -0.31 0.21 -0.02 0.01 -0.28 0.19 -0.01 0.01 -0.28 0.19 -0.04 0.02 -0.25 0.17 -0.06 0.04 -0.22 0.15 -0.09 0.06 -0.2 0.13 -0.12 0.08 -0.03 0.02 -0.27 0.17 -0.02 0.01 -0.15 0.09 -0.18 0.11 -0.12 0.07 -0.2 0.13 -0.09 0.06 -0.23 0.14 -0.33 0.2 -0.04 0.02 -0.29 0.17 -0.01 0.01 -0.3 0.18 -0.02 0.01 -0.28 0.16 -0.05 0.03 -0.33 0.19 -0.23 0.13 -0.11 0.06 -0.2 0.11 -0.13 0.07 -0.17 0.09 -0.27 0.14 -0.04 0.02 -0.19 0.1 -0.12 0.06 -0.22 0.12 -0.01 0.01 -0.33 0.17 -0.06 0.03 -0.28 0.15 -0.03 0.02 -0.32 0.16c-7.38,3.69 -15.66,5.53 -24.84,5.53 -8.53,0 -16.11,-1.64 -22.75,-4.92 -6.64,-3.28 -11.85,-7.87 -15.61,-13.77 -3.77,-5.9 -5.66,-12.62 -5.66,-20.17 0,-12.13 4.14,-21.76 12.42,-28.89 8.28,-7.13 20.37,-11.35 36.27,-12.67l34.01 -2.93 14.44 -1.25 0 26.56 -14.41 1.2 0 -0 0 -0.04 0 -0.05 0 -0.05 0 -0.05 0 -0.05 0 -0.02 0 -0.03 0 -0.05 0 -0.05 0 -0.05 0 -0.05 0 -0.03 0 -0.01 0 -0.05 0 -0.05 0 -0.05 0 -0.05 0 -0.05 0 -0 0 -0.05 0 -0.05 0 -0.05 0 -0.05 0 -0.05 0 -0.02 0 -0.03 0 -0.05 0 -0.05 0 -0.05 0 -0.05 0 -0.03 0 -0.01 0 -0.05 0 -0.05 0 -0.05 0 -0.05 0 -0.05 0 -0 0 -0.05 0 -0.09 0 -0.05 0 -0.05 0 -0.02 0 -0.03 0 -0.05 0 -0.05 0 -0.05 0 -0.05 0 -0.03 0 -0.01 0 -0.14 0 -0.05 0 -0.05 0 -0.05 0 -0.05 0 -0.05 0 -0.05 0 -0.05 0 -0.02 0 -0.03 0 -0.05 0 -0.05 0 -0.05 0 -0.05 0 -0.03 0 -0.02 0 -0.05 0 -0.05 0 -0.05 0 -0.05 0 -0.05 0 -20.41 -0 -0.31 -0 -0.02 0 -0.03 -0 -0.05 -0 -0.15 -0 -0.05 -0 -0.05 0 -0 -0 -0.05 -0 -0.15 -0 -0.05 -0 -0.05 -0 -0.02 -0 -0.03 -0 -0.05 -0 -0.05 -0.01 -0.15 -0 -0.04 0 -0.01 -0 -0.05 -0.01 -0.15 -0 -0.05 -0 -0.05 -0 -0.02 -0 -0.03 -0 -0.05 -0.01 -0.1 -0 -0.05 -0 -0.05 -0 -0.04 -0 -0.01 -0 -0.05 -0 -0.05 -0.01 -0.1 -0 -0.05 -0 -0.05 -0 -0.01 -0 -0.04 -0 -0.05 -0 -0.05 -0 -0.05 -0 -0.05 -0 -0.05 -0 -0.04 -0 -0.01 -0 -0.05 -0.02 -0.19 0 -0 -0 -0.05 -0 -0.01 -0 -0.04 -0.01 -0.05 -0.01 -0.05 -0.01 -0.05 -0.01 -0.05 -0.01 -0.05 -0 -0.03 -0.03 -0.23 -0 -0.02 -0.02 -0.15 -0 -0.01 -0 -0.03 -0.01 -0.05 -0.02 -0.13zm176.33 84c-13.93,0 -25.86,-3.24 -35.78,-9.71 -9.92,-6.48 -16.52,-15.28 -19.8,-26.44l30.25 -7.62 2.95 0.74c1.31,4.59 4.14,8.2 8.48,10.82 4.34,2.63 9.38,3.94 15.13,3.94 5.57,0 10.24,-1.11 14.02,-3.32 3.77,-2.21 5.66,-5.12 5.66,-8.73 0,-3.11 -1.15,-5.57 -3.44,-7.38 -2.3,-1.8 -5.74,-3.2 -10.33,-4.18l-23.6 -5.16c-11.64,-2.62 -20.62,-7.09 -26.93,-13.4 -6.31,-6.31 -9.47,-14.06 -9.47,-23.24 0,-7.87 2.21,-14.71 6.64,-20.53 4.43,-5.82 10.53,-10.37 18.32,-13.65 7.78,-3.28 16.6,-4.92 26.44,-4.92 13.28,0 24.55,3.24 33.81,9.71 9.26,6.48 15.37,15.45 18.32,26.93l-28.03 6.15 -2.7 -0.49c-1.15,-4.1 -3.9,-7.46 -8.24,-10.08 -4.35,-2.62 -9.22,-3.93 -14.63,-3.93 -4.92,0 -9.06,0.9 -12.42,2.71 -3.36,1.81 -5.04,4.35 -5.04,7.62 0,2.13 0.94,4.14 2.83,6.02 1.88,1.89 4.8,3.24 8.73,4.06l23.61 5.41c12.62,2.95 22.22,7.25 28.77,12.91 6.56,5.66 9.84,13.49 9.84,23.48 0,8.52 -2.3,15.98 -6.89,22.38 -4.59,6.39 -10.91,11.31 -18.93,14.75 -8.03,3.44 -17.22,5.17 -27.54,5.17zm-82.87 -3.93c-12.95,0 -23.24,-4.06 -30.86,-12.17 -7.62,-8.12 -11.44,-19.14 -11.44,-33.07l0 -50.41 0 -29.26 0 -31.48 33.2 0 0 31.48 0 29.26 0 46.72c0,6.07 1.76,10.86 5.29,14.38 3.52,3.53 8.32,5.29 14.39,5.29l11.8 0 1.23 2.7 0 26.56 -23.61 0zm-63.44 -124.93l21.14 0 33.2 0 32.71 0 0 29.26 -32.71 0 -33.2 0 -21.14 0 0 -29.26zm-137.47 124.93c-12.95,0 -23.24,-4.06 -30.86,-12.17 -7.62,-8.12 -11.44,-19.14 -11.44,-33.07l0 -50.41 0 -29.26 0 -31.48 33.2 0 0 31.48 0 29.26 0 46.72c0,6.07 1.76,10.86 5.29,14.38 3.52,3.53 8.32,5.29 14.39,5.29l11.8 0 1.23 2.7 0 26.56 -23.61 0zm-63.44 -124.93l21.14 0 33.2 0 32.71 0 0 29.26 -32.71 0 -33.2 0 -21.14 0 0 -29.26z"/>
   </g>
   <path class="fil1" d="M611.64 221.4l61.31 0 0 -132.19 -61.31 0 0 132.19zm-91.49 0l-61.31 0 0 -61.31 61.31 0 0 61.31zm76.29 0l-61.31 0 0 -89.27 61.31 0 0 89.27zm-111.48 -160.09l187.98 0 0 -61.31 -187.98 0c-67.61,0 -122.62,55.01 -122.62,122.62l0 65.36c0,45.98 25.44,86.18 63.01,107.12 17.64,9.88 37.98,15.5 59.61,15.5l187.98 0 0 -61.31 -152.8 0 -94.79 45.81 32.53 -52.15c-20.27,-9.98 -34.23,-30.86 -34.23,-54.97l0 -65.36c0,-33.79 27.52,-61.31 61.31,-61.31z"/>
  </g>
 </g>
</svg>
