<?xml version="1.0" encoding="utf-8"?>
<!-- Generator: Adobe Adobe Illustrator 29.1.0, SVG Export Plug-In . SVG Version: 6.00 Build 0)  -->
<svg version="1.1" id="Layer_1" xmlns="http://www.w3.org/2000/svg" xmlns:xlink="http://www.w3.org/1999/xlink" x="0px" y="0px"
	 viewBox="0 0 2354.45 520" style="enable-background:new 0 0 2354.45 520;" xml:space="preserve">
<style type="text/css">
	.st0{fill:#FFFFFF;}
	.st1{fill:#047DFF;}
	.st2{fill:#023535;}
	.st3{fill:#44AF43;}
	.st4{fill:#027DFE;}
</style>
<g>
	<path class="st1" d="M513.91,417.59c0.93,0.01,1.86,0.46,3.73,0.95v101.03h-16.11c-100.92,0-201.85,1.19-302.75-0.38
		c-75.53-1.18-132.21-38.09-171.16-101.93C12.9,393.13,3.02,366.6,0.78,337.01c-1.04-50.76-1.04-100.88,0.04-152.97
		C8.26,160,11.55,136.41,21.6,116.19c23.66-47.6,59.17-84.22,111.11-101.46c17.37-5.77,35.3-9.87,52.97-14.73h331.49
		c1.4,33.99,1.4,67.97,1.4,103.93h-18.29c-96.43,0-192.85,0.08-289.27-0.03c-33.89-0.04-63.07,10.98-85.11,37.2
		c-12.5,14.88-21.5,31.94-21.48,52.29c0.05,47-1.3,94.06,0.86,140.97c1.21,26.2,17.02,46.69,38.29,62.19
		c4.78,3.48,9.74,6.73,15.74,10.85c-16.56,26.74-32.98,53.26-49.41,79.79c0.68,0.96,1.35,1.92,2.02,2.89
		c14.82-6.76,29.76-13.26,44.42-20.34c34.04-16.44,67.91-33.22,101.95-49.65c3.41-1.64,7.53-2.53,11.33-2.54
		C351.05,417.45,432.48,417.52,513.91,417.59z"/>
	<path class="st1" d="M2354,359.04c-16.62,43.34-50.92,56.22-92.09,56.01c-41.16-0.2-79.69-21.54-90.06-59.05
		c14.66-4.02,29.18-8.69,44.05-11.61c4.29-0.84,11.44,1.94,14.06,5.47c12.12,16.29,41.24,24.73,58.04,13.94
		c5.27-3.39,10.83-13.72,9.24-18.57c-2.02-6.18-10.46-12.18-17.39-14.45c-21.04-6.88-43.02-10.91-63.99-17.97
		c-21.47-7.23-35.98-21.96-38.81-45.8c-3.53-29.88,9.92-50.73,35.8-63.41c36.2-17.72,96.81-14.88,121.63,21.26
		c6.02,8.77,10.65,18.5,16.15,28.18c-9.43,2.68-17.07,4.45-24.43,7.02c-13.88,4.85-25.72,8.66-36.26-8.26
		c-7.8-12.53-38.57-14.71-51.43-7.15c-10.2,6-11.22,19.92-0.22,25.07c12.75,5.98,27.23,8.17,40.74,12.65
		c17.2,5.71,35.67,9.68,50.73,19.01c9.98,6.19,14.96,20.49,23.21,31.57C2354,341.47,2354,349.58,2354,359.04z"/>
	<path class="st2" d="M1313.33,381.3c0,9.44,0,17.39,0,26.28c-15.79,0-30.98,0-47.36,0c-0.37-6.34-0.76-13.03-1.23-21.15
		c-7.91,5.42-14.94,10.31-22.03,15.09c-29.37,19.79-82.7,17.92-106.99-8.95c-31.67-35.04-15.16-93.83,31.07-103.89
		c29.99-6.53,60.76-9.46,91.9-14.11c-4.6-18.51-15.7-31.05-36.1-33.38c-18.99-2.17-35.79,1.91-45.45,20.47
		c-4.29,8.24-9.15,9.43-17.92,6.42c-11.1-3.81-23.01-5.25-34.33-7.66c-0.91-26.29,22.53-55.15,58.43-63.05
		c41.86-9.22,91.04-9.49,123.77,49.73c0-16.48,0-30.54,0-46.29c12.43,0,23.61,0,35.89,0c0-18.47,0-35.26,0-52.84
		c18.92,0,36.67,0,55.88,0c0,16.71,0,33.52,0,51.64c18.64,0,35.91,0,54.23,0c0,16.94,0,32.58,0,49.37c-17.34,0-34.63,0-52.88,0
		c0,29.34-1.24,57.65,0.46,85.78c1.03,16.99,14.07,25.49,32.05,25.62c21.73,0.15,21.51-3.96,21.43,22.09c-0.02,7.97,0,15.94,0,25.85
		c-31.98-1.03-64.62,6.76-90.87-20.09c-14.16-14.48-19.16-32.18-19.74-51.17c-0.88-28.86-0.23-57.76-0.23-87.21
		c-12.58,0-23.87,0-32.02,0C1311.97,293.39,1312.65,336.6,1313.33,381.3z M1241.03,323.33c-16.56,2.15-33.49,2.92-49.5,7.14
		c-6.19,1.64-15.52,12.81-14.27,16.68c2.42,7.48,10.46,16.88,17.69,18.43c33.51,7.19,58.79-14.55,63.54-44.41
		C1253.37,321.74,1248.51,322.28,1241.03,323.33z"/>
	<path class="st1" d="M1636.15,404.32c-48.26,18.87-96.09,15.87-139.43-16.93c-16.65-12.59-25.4-30.05-32.36-48.66
		c-0.97-2.6,2.88-9.55,5.9-10.67c11.1-4.1,22.75-6.73,34.26-9.65c10.03-2.55,14.75,2.75,19.36,11.31
		c18.18,33.71,64.46,45.76,92.76,24.89c10.31-7.6,18.69-18.21,13.76-30.28c-3.85-9.42-13.18-19.58-22.47-23.16
		c-21.55-8.29-44.52-12.93-66.98-18.82c-40.45-10.61-71.92-45.1-71.68-83.88c0.24-39.08,25.75-69.28,63.01-77.77
		c18.98-4.33,39.21-3.18,60.15-4.25c33.76,6.28,61.56,19.59,77.41,50.64c4.2,8.23,7.12,17.11,11.41,27.59
		c-16.71,4.32-31.3,8.74-46.2,11.36c-2.65,0.46-7.89-5.96-9.76-10.17c-12.89-29.06-60.29-40.47-85.61-21.5
		c-15.59,11.67-17.14,41.79,6.43,50.62c20.26,7.59,41.54,12.52,62.47,18.22c28.24,7.69,55.09,18.61,69.9,45.46
		C1699.98,327.67,1690.22,383.18,1636.15,404.32z"/>
	<path class="st2" d="M680.73,236.13c1.85,25.93,1.42,51.03,6.45,74.99c6.12,29.11,34.14,49.65,67.46,51.59
		c29.78,1.74,55.77-6.85,70.02-36.53c3.19-6.65,7.28-9.33,15.41-6.17c12.77,4.96,26.19,8.25,40.69,12.66
		c-3.93,20.14-15.15,36.71-30.21,49.63c-32.64,28-70.89,37.29-113.51,30.55c-48.5-7.67-82.35-33.68-101.34-78.81
		c-10.78-25.62-13.56-52.76-12.09-80.25c2.49-46.38,17.58-86.93,56.81-115.06c25.84-18.53,55.74-26.38,86.74-24.11
		c46.55,3.4,85.95,21.21,107.87,66.12c2.34,4.8,4,9.93,6.51,16.25c-16.1,4.96-31.32,10.11-46.87,13.97
		c-2.57,0.64-8.02-3.71-9.66-6.99c-14.38-28.81-39.82-38.79-69.09-37.18c-38.47,2.12-59.21,24.88-69.47,52.7
		C684.59,224.59,682.73,229.7,680.73,236.13z"/>
	<path class="st2" d="M1040.02,195.2c30.84,5.76,61.4,26.77,62.59,79.47c0.99,43.95,0.2,87.94,0.2,132.89c-18.57,0-36.71,0-56.42,0
		c0-40.14-0.51-80.04,0.2-119.91c0.4-22.51-14.26-41.44-28.02-44.25c-22.7-4.64-46.92,6.94-55.36,27.92
		c-3.97,9.86-6.23,21.01-6.47,31.65c-0.79,34.48-0.3,69-0.3,104.54c-18.11,0-35.82,0-54.5,0c0-97.06,0-194.43,0-293.91
		c17.05-2.27,34.65-4.62,53.99-7.2c0,38.51,0,75.21,0,115.38C980.88,197.57,1007.97,189.83,1040.02,195.2z"/>
	<path class="st3" d="M2020.95,249.13v0.05C2020.97,249.15,2020.95,249.13,2020.95,249.13z"/>
	<path class="st1" d="M2024.31,392.21c-1.1-47.67-2.24-95.36-3.36-143.03c-0.02,0.07-0.18,0.23-0.91,0.5
		c-3.59-4.29-6.03-9.04-8.66-13.68c-17.62-31.03-46.49-41.58-79.79-42.7c-34.88-1.17-66.32,8.12-85.68,39.43
		c-17.66,28.57-15.41,28.25,13.89,31.83c4.87,0.59,9.65,2.49,14.3,4.24c7.18,2.71,11.72,1.79,15.12-6.29
		c7.06-16.71,24.77-24.84,44.05-21.45c22.98,4.03,32.64,13.68,34.49,33.61c-29.47,4.55-59.22,7.64-88.21,14.11
		c-21.44,4.78-38.02,18.59-44.22,40.97c-7.12,25.66-3.53,49.5,17.81,67.53c19.82,16.74,43.92,22.03,68.37,15.79
		c18.9-4.81,36.44-14.92,54.71-22.72v17.36h48.1C2024.32,402.02,2024.42,397.11,2024.31,392.21z M1939.82,362.56
		c-15.43,0.56-28.98,1.28-41.88-1.31c-3.87-0.78-8.52-11.02-8.02-16.49c0.47-5.21,6.51-13.21,11.28-14.18
		c22.16-4.5,44.72-6.98,68.17-10.34C1967.21,341.53,1956.25,353.99,1939.82,362.56z"/>
	<path class="st1" d="M517.58,150.12v222.29h-85.59c-5.79-0.24-10.11-0.49-14.61-0.75V150.12H517.58z"/>
	<path class="st3" d="M2021.17,249.35v-0.11C2021.09,249.27,2021.14,249.32,2021.17,249.35z"/>
	<path class="st1" d="M2164.34,360.38v45.89c-38.1,10.3-80.68-1.27-97.15-28.06c-5.43-8.84-9.29-20.03-9.68-30.31
		c-1.22-32.34-0.45-64.76-0.45-98.64c-12.6,0-22.97,0-34.73-0.07c-0.79-0.03-1.08,0-1.17,0.05c0.08-15.78,0.08-31.66,0.08-49.14
		h34.47v-51.79h55.36v51.48h52.96v49.13h-52.7c0,29.72-0.79,58.54,0.35,87.27c0.51,12.86,14.96,23.63,28.36,24.13
		C2147.9,360.62,2155.78,360.38,2164.34,360.38z"/>
	<path class="st1" d="M1828.39,360.38v48.02c-25.61-0.76-51.18,4.29-74.66-8.98c-21.02-11.88-32.29-30.09-32.49-54.44
		c-0.26-31.38-0.06-62.76-0.06-95.3h-35V200.2h34.65V148h54.12v51.66h53.03v49.51h-52.76c0,28.86-0.59,56.25,0.24,83.59
		c0.45,15.32,14.44,27.16,30.03,27.59C1812.87,360.55,1820.25,360.38,1828.39,360.38z"/>
	<rect x="289.75" y="221.56" class="st1" width="101.88" height="150.85"/>
	<path class="st1" d="M262.6,270.2v101.13H161.26c0-29.66,0-59.88,0.01-91.55c2.96-4.17,5.87-9.17,8.88-9.22
		C200.57,269.98,231.01,270.2,262.6,270.2z"/>
</g>
</svg>
