<?xml version="1.0" encoding="utf-8"?>
<!-- Generator: Adobe Adobe Illustrator 29.1.0, SVG Export Plug-In . SVG Version: 6.00 Build 0)  -->
<svg version="1.1" id="Layer_1" xmlns="http://www.w3.org/2000/svg" xmlns:xlink="http://www.w3.org/1999/xlink" x="0px" y="0px"
	 viewBox="0 0 500 500" style="enable-background:new 0 0 500 500;" xml:space="preserve">
<style type="text/css">
	.st0{fill:#FFFFFF;}
	.st1{fill:#047DFF;}
	.st2{fill:#023535;}
	.st3{fill:#44AF43;}
	.st4{fill:#027DFE;}
</style>
<g>
	<path class="st0" d="M499.82,400.82c0,32.75,0,65.51-0.47,98.73c-102.83,0.47-205.19,0.57-307.55,0.33
		c-10.72-0.03-21.6-1.21-32.13-3.28c-17.25-3.39-33.74-9.19-49.63-17.08c-18.25-9.06-34.52-20.62-49.18-34.58
		c-13.66-13-25.53-27.56-34.32-44.28c-6.26-11.9-11.89-24.2-16.77-36.72c-2.91-7.46-3.95-15.67-5.6-23.59
		c-1.5-7.2-2.67-14.47-3.99-21.7c0-44.44,0-88.89,0.35-134.04c0.63-4.85,0.36-9.13,1.3-13.12c3.13-13.33,5.85-26.86,10.35-39.74
		c4.19-12.01,9.56-23.82,16-34.78C39.17,78.24,53.11,61.74,69.72,47.6c14.55-12.38,30.51-22.53,47.84-30.37
		c17.35-7.85,35.71-12.54,54.51-15.37c5.3-0.8,10.65-1.25,15.97-1.86c0.75,0,1.5,0,3,0.17c5.06,0.12,9.37,0.02,13.68,0.02
		c95.75-0.01,191.51-0.01,287.26,0.03c2.61,0,5.23,0.51,7.84,0.79c0,32.42,0,64.84-0.47,97.77c-98.55,0.51-196.63,0.56-294.71,0.48
		c-19.49-0.02-38.08,3.16-55.25,12.98c-14.8,8.47-27.13,19.59-36.03,34.15c-10.28,16.82-14.65,35.32-14.55,55.04
		c0.17,32.73,0.06,65.46,0.04,98.18c-0.01,11.37,1.1,22.63,4.67,33.43c6.31,19.09,17.19,35.12,33.32,47.27
		c5.31,3.99,11.05,7.4,16.85,11.24c-17.04,27.38-33.96,54.57-50.87,81.75c12.78-4.93,24.52-10.69,36.31-16.36
		c10.51-5.05,21.09-9.94,31.58-15c10.3-4.97,20.54-10.09,30.81-15.13c13.68-6.71,27.34-13.47,41.06-20.1
		c7.07-3.42,14.06-6.07,22.44-6.03C343.29,401,421.56,400.84,499.82,400.82z"/>
	<path class="st0" d="M499.82,356.26c-32.58,0.47-65.16,0.47-98,0.47c0-70.9,0-141.28,0-212.43c32.33,0,64.69,0,97.53,0
		C499.82,214.79,499.82,285.29,499.82,356.26z"/>
	<path class="st0" d="M376.8,325.66c0,10.48,0,20.46,0,30.73c-32.96,0-65.49,0-98.38,0c0-47.47,0-94.92,0-142.67
		c32.61,0,65.15,0,98.38,0C376.8,250.87,376.8,288.02,376.8,325.66z"/>
	<path class="st0" d="M155.12,267.6c0-3.45,0-6.4,0-9.61c33.08,0,65.61,0,98.51,0c0,32.68,0,65.29,0,98.31c-32.45,0-65.12,0-98.51,0
		C155.12,326.99,155.12,297.54,155.12,267.6z"/>
</g>
</svg>
